/* XPM */
static char *f9201872ee1a4a6df719e5904db88f22Mmxbv5g1s7Uw68kk[] = {
/* columns rows colors chars-per-pixel */
"64 64 154 2 ",
"   c #464134",
".  c #4A453A",
"X  c #4E4B3C",
"o  c #534E3F",
"O  c #544E43",
"+  c #4F5042",
"@  c #555245",
"#  c #595345",
"$  c #565749",
"%  c #5B564A",
"&  c #5D5A4D",
"*  c #5C5753",
"=  c #5E5B51",
"-  c #60574E",
";  c #615B4E",
":  c #635D52",
">  c #63604F",
",  c #656255",
"<  c #6A6456",
"1  c #666459",
"2  c #6B655A",
"3  c #6C6A5C",
"4  c #70675E",
"5  c #716B5E",
"6  c #6C6761",
"7  c #6F6C61",
"8  c #736E62",
"9  c #786F66",
"0  c #746F6A",
"q  c #757265",
"w  c #797265",
"e  c #777469",
"r  c #7B756A",
"t  c #77786A",
"y  c #7D796D",
"u  c #7F7B71",
"i  c #80766C",
"p  c #817B6E",
"a  c #827D72",
"s  c #887E74",
"d  c #827D78",
"f  c #887F78",
"g  c #C3B928",
"h  c #C9BF29",
"j  c #E7DA1E",
"k  c #ECDE1C",
"l  c #C9C032",
"z  c #EDDF25",
"x  c #E8DC29",
"c  c #EDE027",
"v  c #EEE22E",
"b  c #EEE130",
"n  c #83806F",
"m  c #858175",
"M  c #898476",
"N  c #8B8876",
"B  c #868379",
"V  c #8B857A",
"C  c #8D8A7D",
"Z  c #90877E",
"A  c #918A7E",
"S  c #94917E",
"D  c #ECE45D",
"F  c #F1E95D",
"G  c #E9E26A",
"H  c #F3EB6A",
"J  c #EDE770",
"K  c #EEE872",
"L  c #F3EC70",
"P  c #F4EF7D",
"I  c #8B8681",
"U  c #8E8B81",
"Y  c #908780",
"T  c #938D82",
"R  c #988F85",
"E  c #938E8A",
"W  c #988F88",
"Q  c #8F9081",
"!  c #949284",
"~  c #999285",
"^  c #969389",
"/  c #9B958A",
"(  c #9D9A8D",
")  c #9B9691",
"_  c #9E9B91",
"`  c #A0978D",
"'  c #A19A8E",
"]  c #A09790",
"[  c #A39D92",
"{  c #A89F96",
"}  c #A49F98",
"|  c #A89F98",
" . c #A3A08F",
".. c #A5A295",
"X. c #A9A296",
"o. c #A6A399",
"O. c #ABA59A",
"+. c #A7A89A",
"@. c #ADAA9D",
"#. c #B0A79E",
"$. c #B1AB9E",
"%. c #B1AD9F",
"&. c #ABA6A0",
"*. c #AEABA1",
"=. c #B0A7A0",
"-. c #B2A9A0",
";. c #B3ACA0",
":. c #B1AFA1",
">. c #B3AFA1",
",. c #B3ADA2",
"<. c #B6AFA3",
"1. c #B6ADA4",
"2. c #B6AFA5",
"3. c #B8AEA3",
"4. c #B8AFA6",
"5. c #B3AEA9",
"6. c #B8AFA8",
"7. c #B5B0A3",
"8. c #B4B2A4",
"9. c #B6B3A4",
"0. c #B6B4A6",
"q. c #B8B1A5",
"w. c #B9B2A5",
"e. c #BAB2A6",
"r. c #B8B5A6",
"t. c #B6B3A9",
"y. c #BAB3A9",
"u. c #BCB3AA",
"i. c #B9B5A9",
"p. c #BBB4AA",
"a. c #BBB6AA",
"s. c #BDB6AB",
"d. c #BFB7AC",
"f. c #BAB8AB",
"g. c #BCB9AA",
"h. c #BDBAAB",
"j. c #BDBBAE",
"k. c #BCB7B2",
"l. c #BFBDB0",
"z. c #C1BBAD",
"x. c #C1B9AF",
"c. c #C1BEAF",
"v. c #C3BFB1",
"b. c #C2BCB2",
"n. c #C7BEB5",
"m. c #C7BFB9",
"M. c #C4C0B2",
"N. c #C4C1B4",
"B. c #C7C2B5",
"V. c #CBC4B7",
"C. c #CAC5BA",
"Z. c #CEC7BC",
"A. c #CDC9BB",
"S. c #CFCBBF",
/* pixels */
"w / ' ~ ' r - [ A r i 8 < a A A M - R ` ` T V 3 O.X.{ X.$.y 3 $.y.-.u.4.' 3 #.{ ` [ :.w a 2.` +.[ m < X.^ / / / o , ' ' ..m m $ ",
"{ X.' [ <.T r d.s.q.d.X.Z $.q.@.{ i ~ [ { { X.A [ <.y.%.7./ a @.2.{ @.-.X.r @.` / ` y.M V 4.[ X.8.( m M.%.o.[ @.5 T c.@.r.@.8.e ",
"[ ' O.<.d.T V Z.<.s.x.[ r $.8.[ 3.A V ` $.#.$.V q.$.<.x.j.( M i.2.4.n.x.:.r O.#.:.X.d.R Z u.2.d.N./ 3 +.%.0.+.0.: T c.X.0.0.g.1 ",
"a y C C / y y @.@.+.+.~ 3 [ X.T R s 5 A O.[ / 5 / M a V r 3 , T V T ' T T : s T / y A 9 3 T T T T r X e M / p M % y [ T ( A ..; ",
"T y 5 O y m m T m 2 q q O 8 5 O < 8 - w V i i 5 V / ! r % a a i M a r 3 ~ a T T T < a M y T M 8 : C m ! N ! 1 5 m m C M m , ! p ",
"j.l.:.y @.j.j.f.@.m ..0.o.:.+.a V X.~ ~ T Z T O.O.8.i.@.a @.@...+.@.( y q.<.i.y.b.a ( 2.{ <.-.T 8 8.8.%.@.g.a M A.g.g.b.7.w %.:.",
"! 0.8.q +.*.@.8.o.e +.i.f.8.8.y V X./ T Z A y [ @.[ +.j.m ( ( +.{ q.X.8 +.@.-.2.b.r T -.( X.<.R r 8.+.[ %.C.m C i.8.i.M.:.2 [ / ",
"( 0.+.1 8.j.i.N.+.e @.+.+._ o., a R T T { <.r T :.@.8.j.r [ ..+...2./ : @.j.2.+.-.3 C i.[ { @.C 8 :.%.+.@.i.3 m 8.j.j.j.@.8 @./ ",
"$ 3 q + e t t / 3 $ q m e 1 3 y r V A 2 y 8 , r y T e M 2 r r a e T q @ & q r & 8 3 & r r 2 y 0 : C a 2 1 2 8 q M r 8 U r : m V ",
"2 ( +.o.@.! , , +._ @.+.8.m ! l.+.q.:.y A / ( +.@.C & ! ( 8.( B 2 / ( U T ( ( y +.&.t.O./ 1 _ :.:.i.o.q a :.:.8.N.! 2 ( :.*.:.^ ",
"7 +.+.f.j.f.^ ! 8.:.0...i.q a j...q.d.M ! +.../ +.C y j.:.8.8.f.y o.@..._ [ / 0 [ ..i.[ o.: O.N.:.:.b.m T C.@./ t.[ m 8.&.O.i.i.",
"2 [ +.i.b.j.[ T i.i.8.7.s.a M @.:.@.O.y m ..:.o.@.M r 0.8.0.i.8.T o.o.o.+.&...r i.t.b.@.t.2 ( @.j.t.N.C C i.j.&.i.O.d :.:.:.8.:.",
", M T m ! A m 3 y y < a 8 2 2 , y , w < 8 a C y C q , V C U U m q a m B a a y O U ! M V V O 3 u m e a 3 2 r [ U U d % u d r r r ",
"M V C % 9 A ( / ' ~ 5 ~ a / ' M m : C ( [ ! V 3 e V C Q y 3 u ! ^ ( ( ! r e C y C C : u ! C U / u 1 B _ o.U [ 7 r ! U ^ m = r ^ ",
"q.$.d.M A x.$.$.$.O.w ~ / ' X.( i.m [ O.o.....B ( 8.+.@.@.Q ^ :.o....._ m U f.i.i.:.q U 8.i.*.O.t.u &.i.b.t.b.U U o.o.{ O.e / O.",
"$.X.q.V a N.' X.<.q.i A O.C T ( 7.i ' $.+.@.@.M ! :.o.+.8.C C 8.o._ [ o.U T &._ [ :.B T &.o.o.O.O.2 :.@.:.t.i.! B _ O.[ :.r [ :.",
"/ C ! 8 m ( ' +.[ ( < M A T ~ M ~ i i A A A A , w ( / / ( p p / ..^ O.^ e u V :.( _ r B +.! o._ ( 2 ^ ....*.:.8 @ _ / m C e e / ",
", e B 8 r V y : 2 8 3 m V a 5 i M a M ~ < w r < 2 g g h x c k k k k k k 1 0 2 2 u T d d B 1 B T r 3 m 1 q q r & & 2 X 2 q r q m ",
"r [ +.[ ( :...2 ( O.s.q.q.{ w :.$.$.$.x.w T ' ' l G J J L F z k k k k k k k k V *.t.O...[ m O.:.+.i.i.e ..+.@.:.@.C 2 +.( @.+.8.",
"y ....+...8.@.5 / X.$.$.x.[ i s.s.#.$.<.a X.g l G P P P H v k k k k k k k k k k t.&.o.( ^ m &.:.o.0...& ..8.8.8.N./ r 8.+.:.@.8.",
"8 V M ! ( / ! , ..{ ' ..$.a - 5 V p R A i l G K P P P H v k k k k k k k k k k k k k _ ( B r o.+...@...2 ( @.+.( [ a : y ! ! ! C ",
"m m r 7 U m m r 3 O & 9 M w w 5 o : A i l G P P P P H v k k k k k k k k k k k k k k k y q 3 m 3 q M ! 8 m M u a C m q 3 8 8 B B ",
"j.@...q 8.+.@.i.7.y +.$.O.q.b.<.2 / x.g G P P P P H v k k k k k k k k k k k k k k k k k i.i.j.C a o.@...+...B o.i.f.j.f.m C 8.@.",
"@...o.2 f.@...:.( % s.q./ <.<.' - / #.l K P P P H v k k k k k k k k k k k k k k k k k k o.+.i.C m 8.+.@.i.+.8 ..j.+.@.S.y ( i.! ",
"^ / V 8 [ +.@._ a 2 X.O.s.<.x.' < i l G P P P H v k k k k k k k k k k k k k k k k k k k k j.+.( , m o.0.+.@.q 7 C ^ ! a 3 r / / ",
"@ q y , 7 , O : 3 3 A i - 2 a M r g G P P P L b k k k k k k k k k k k k k k k k k k k k k k 1 1 , 1 & $ q V , , : & q y e 8 y 2 ",
"U 8.i.@.@...r ....@.@.{ r X.O.$.b.g J P P P L c k k k k k k k k k k k k k k k k k k k k k k ' / M T m 2 ( 8.+.8.o.y ( 0.l.:.f.( ",
"T 0.8.8.8.8.r q.O.@.[ / i s.<.$.X.l J P P P H c k k k k k k k k k k k k k k k k k k k k k k %.../ o./ q 8.@...+.i.8 T @.8.+.8.( ",
"B i.8.N.i.@.8 8.8.<.j.[ a X.d.x.g G P P P L b k k k k k k k k k k k k k k k k k k k k k k k k 7.....B 2 f.@.+.o.i.r [ f.i.8.8.( ",
"e ! 7 M C C , C m 5 ~ M 5 w A i g J P P P L c k k k k k k k k k k k k k k k k k k k k k k k k m y m r 3 o.B T / 3 . 1 3 & q 3 1 ",
"....: a ( ../ [ / : A @.[ { O.i g J P P P L c k k k k k k k k k k k k k k k k k k k k k k k k @ C ( ( / [ 1 e C ( T ^ m 1 ..( ..",
":.j.a ..8.@.8.@.i.2 A b.$.j.b.~ g J P P P L c k k k k k k k k k k k k k k k k k k k k k k k k C @.@.+.8.0.B ( 8.+.0.8.! 3 j.@.8.",
"f.f.8 ^ 8.8.@.j.@.2 ! j.i.C.:...g J P P P L c k k k k k k k k k k k k k k k k k k k k k k k k m ..c.8.%.c.N ! %.%.7.:.+.2 j.@.i.",
"! r @ q M B a e C , y r y T m r g J P P P L c k k k k k k k k k k k k k k k k k k k k k k k k 5 m S S N C 3 M ^ p A M m % U m C ",
"! M ..+.C q ! ^ o./ _ , 8 y e 3 g J P P P L c k k k k k k k k k k k k k k k k k k k k k k k k e 5 < r N n 3 e ; ; T / o.! / m 8 ",
"j.:.j.l.i.U j.@.+.:.8.8 ( @.8.@.g G P P P L b k k k k k k k k k k k k k k k k k k k k k k k k g.g.p m ..(  .%.M w r.%.8.j.:.+.m ",
"i.b.@.+.j.m b.8.j.b.i.m :.@.@...8.l J P P P H c k k k k k k k k k k k k k k k k k k k k k k / ( 7.5 y ..^ X.@.M 3 i.@.@.C.:.O.a ",
"a T M a C & T ! M m M q T T ( ! / g J P P P L c k k k k k k k k k k k k k k k k k k k k k k ! ' N 3 M  .m ! V 8 @ T C ( 8./ B , ",
"q O , , y 8 8 % T m C a 2 2 a q m g G P P P L b k k k k k k k k k k k k k k k k k k k k k k q ! M m B 3 X y m a a m , e m r y M ",
"[ 2 j.i.+.8.( M :.+.s.7.i M i.%.7.:.l G P P P H c k k k k k k k k k k k k k k k k k k k k w ! @.( :.X.e < 7.8.:.j.( e / _ T / b.",
"[ r 7.X...:.+.y :.X.i.:.a M :.[ @.+.C l K P P L b k k k k k k k k k k k k k k k k k k k M.M C @.%./ f.T @ ..:...8.^ 0 l.^ ^ k.:.",
"C r [ @.....~ q $.$.O.X.a m q.@.@.X.M g G P P P H v k k k k k k k k k k k k k k k k k k ( m C X./ C ( M , [ @.@.&.( r :.:.t.t.O.",
"a 8 < M a a a i & 2 5 8 - % w 8 w 8 & & l G P P P H z k k k k k k k k k k k k k k k k w w m p r M C y q , 3 2 q u r : 2 B ^ I I ",
"s.X.< [ ..O.<.b.r m [ [ / T a T ' ( [ r ! l G K P L b k k k k k k k k k k k k k k k ( ' ( 0.+.q ! +.T ( ..m m _ [ o.o.B T &.o.*.",
"q.X.- X.<.<.$.q.T M <.[ [ O.r / +.+.i.q ! @.g l G P H v k k k k k k k k k k k k ! %.%.! C [ @.2 M [ M ( :.a U :.@.@.b./ B O.O.o.",
"<.X.2 X.O.O.X.X.C w O.' O.q.y ( ..+.i.q / [ / @.l G J D z k k k k k k k k k k y w ' o.! C A o.r ( [ C ! o.y U @.&.[ O.T B 5.t.5.",
"i y # 8 : < 9 i 5 % w a A A 5 w y C C q m C 8 C T g g h j k k k k k k k ! C m < , y ; e w 2 3 & : @ % : q = 7 e 2 e 2 6 2 I e u ",
"/ X.' [ a V [ <.<.~ a ~ / A ~ A T :.( @.+.@.8 T ..( :...8 C / @...@.M m 7.8.@.f.+./ X A ..+.' +.T r T ( O.( [ T 2 [ ^ @.O.[ : 8 ",
"O.O.$.3.~ T q.X.%...e @.C / %.M C 8._ ( ..:.2 C +.[ 8.N.q ^ [ &.o.@.[ a N.:.+.8.! i., _ 8.o.+.i.{ a O.o.} O.{ / C b.@.2.d.m.9 d ",
"y.$.#.<.! A y.<.@...N X.( ' 8./ V +...:.8.b.m ! ..@.8._ 2 / +...+.+.T C *.o.+.o.*.8.q @.i.+._ O.d.9 [ d.-.y.n.T r d.6.m.u.d.9 W ",
"V r p A 5 ; w 2 2 , ; 3 M p 3 $ , q y m , q , 8 5 p m ; % M T C u 8 3 T T U T q q a 1 ! / T q e C r a T T 9 a r r { R ( R T . : ",
"a < r / C p V p & y ! C A m < M ^ T / ( , r C ! C ! ! w ! ..( ( C % u o.( [ _ 7 a O.[ _ ( T : 0 T X./ [ ( : M X.A ' V 8 T ~ 8 w ",
"s.A / q.7.7.g.q.m o.o.....8.m 8.0.X.%.r.M ! :.@.%.:.o.p r.M.i.g.b., ..+...:.t.C q :.:.[ :.[ a S.$.[ X.y.T < <.q.#.q.3.8 X.O.<.<.",
"q.V / <.$.%.@...r ..( o.+.g.y ..7.r.g.f.M m @.f.@.c.+.3 ( r.7.8.8.2 O.[ ..@.i.! C j.t.:.j.m , x.s.q.q.y.A : ' X.X.#.$.< ' ' $.X.",
"T 8 T X.[ X.[ (   M ^ C y 8 @ B A ( ~ A w ; p ! n ( A # , 5 , q 8 % r a 8 3 M , , y r a U 2 : V ~ ` ` / A ; w w M N A < A A R ` ",
"' r T A 9 r w w a ! r 2 m r 2 q 2 3 o , m 5 > X & p A m M y 3 T / o.! [ y 3 ( a M M q 2 8 d ( M M o 5 / ~ ~ { - w N ~ w < # - A ",
"$.<.b.T a X.-._ o.:._ e *._ o...%.r S i...' ( M p j...@.c.8.2 ..:.:.:.i.M ( n.d.y.n.{ y i.i.X.y.A w x.y.#.$.V.Z y.#.x.3.$.m N X.",
":.O.b.a 8 @.-.2.O.:.( q o...o.( / 5 M @.[ [ [ M e 8...X.%.@.r s.i.y.:.2.a ~ d.y.2.b.~ y @.X.@.<.' i $.q.s.$.q.5 ' X.#.$.O.w A ' ",
"u.X.u.y < { ( X.8.:./ 7 ( o.*.o...y B ..+...( y p :.%.:...( 2 V ( [ / [ y C +.O.{ 2.R C O.[ -.X.~ w ~ X.s.X.X.9 X.x.#.3.[ 5 ~ / ",
"r : : & : M y M a q q = u d d y M < 3 a a : , % 3 q 2 : : r 1 r 5 q 2 y 5 r a a : 3 r y M a r 8 i < i r i O < % < 5 2 2 - # y a ",
"| T < ] 2.y.y.6.u 0 ^ _ o./ B u o./ [ :...1 B ..( ( ^ V U i.i.b.-.2./ @.-.y.-.@.V a y.4.:.d.M R <.O.s.<.O.8 / O.` T ( V i ' O.q.",
"y.{ % | d.@.-.@./ d :.i.*.o.T I &.[ ^ [ &.2 B } ( O.5._ ^ :.&.X.2.4.V ~ -.y.@.:./ a b.4.O.b.9 ~ X.[ 2.y.:.y @.u.u.{ q./ p -.{ { ",
"-.| : X.i.y.u.b.[ V t.:._ &./ V t.6._ ) k.d _ o.O.5.*.V I *.t.6.2.y.M R #.2.{ 2.` Z d.2.O.d.9 ] x.2.d.b.=.9 @.O.#.X.-./ r 2.2.X.",
"W W : Y T / C _ d e &.O.T &.U 1 0 ) ^ d E * I _ U E I 1 e ^ I r y M % : 9 8 - 4 3 2 a M a C O r ~ T ] ] f O W / ( [ T y O M [ M "
};
