/* XPM */
static char *ce5b4719113b4525e553374e410b55b6XRKrpVVzFqOVazNs[] = {
/* columns rows colors chars-per-pixel */
"64 64 191 2 ",
"   c #020101",
".  c #080704",
"X  c #060807",
"o  c #090806",
"O  c #070908",
"+  c #0B0B0A",
"@  c #100F0D",
"#  c #12110F",
"$  c #131210",
"%  c #191714",
"&  c #1C1A16",
"*  c #1E1D1A",
"=  c #231F1A",
"-  c #26231D",
";  c #29241E",
":  c #262523",
">  c #282622",
",  c #2C2A25",
"<  c #2D2D29",
"1  c #312D25",
"2  c #322F28",
"3  c #34322C",
"4  c #39342E",
"5  c #3B382F",
"6  c #353431",
"7  c #3A3732",
"8  c #3D3A34",
"9  c #3E3E3B",
"0  c #403C36",
"q  c #433F39",
"w  c #454236",
"e  c #43423D",
"r  c #4A453D",
"t  c #4F4C3D",
"y  c #514B3F",
"u  c #454441",
"i  c #484745",
"p  c #4B4A45",
"a  c #4E4D4A",
"s  c #524D42",
"d  c #504F4B",
"f  c #584F48",
"g  c #555244",
"h  c #5A5346",
"j  c #52514D",
"k  c #5B564B",
"l  c #57584A",
"z  c #5D5A4D",
"x  c #565551",
"c  c #585754",
"v  c #5C5A55",
"b  c #5E5D5A",
"n  c #615B4D",
"m  c #635D52",
"M  c #685F56",
"N  c #605F5B",
"B  c #656255",
"V  c #696355",
"C  c #64625C",
"Z  c #6B665B",
"A  c #67685A",
"S  c #6D6A5D",
"D  c #71675E",
"F  c #716B5D",
"G  c #73705F",
"H  c #666562",
"J  c #696763",
"K  c #6C6A64",
"L  c #6E6D69",
"P  c #736E63",
"I  c #716F6A",
"U  c #786F68",
"Y  c #757265",
"T  c #797366",
"R  c #74736B",
"E  c #7B756A",
"W  c #77786A",
"Q  c #7D796D",
"!  c #767571",
"~  c #787773",
"^  c #7C7A73",
"/  c #7E7D79",
"(  c #817B6E",
")  c #837D73",
"_  c #887F75",
"`  c #807F7B",
"'  c #83806F",
"]  c #858275",
"[  c #898476",
"{  c #84837B",
"}  c #8B857B",
"|  c #8D8A7D",
" . c #90877E",
".. c #928B7E",
"X. c #868581",
"o. c #898782",
"O. c #8C8A84",
"+. c #8E8D89",
"@. c #938D83",
"#. c #988F85",
"$. c #918E8A",
"%. c #8F9082",
"&. c #959285",
"*. c #999385",
"=. c #95928B",
"-. c #9B958A",
";. c #97988A",
":. c #9D9A8D",
">. c #969591",
",. c #999792",
"<. c #9C9A93",
"1. c #9E9D99",
"2. c #A1978D",
"3. c #A19B8E",
"4. c #A39D92",
"5. c #A99F95",
"6. c #A09F9A",
"7. c #A89F98",
"8. c #A5A295",
"9. c #A9A396",
"0. c #A5A29B",
"q. c #ABA59B",
"w. c #ADAA9D",
"e. c #B0A79E",
"r. c #B1AB9E",
"t. c #A6A5A1",
"y. c #AAA6A2",
"u. c #ADABA2",
"i. c #AEADAA",
"p. c #B0A7A0",
"a. c #B3AAA1",
"s. c #B1AEA0",
"d. c #B5ADA3",
"f. c #B4ABA4",
"g. c #B6AEA5",
"h. c #B3ADA3",
"j. c #B8AFA6",
"k. c #B2AEA9",
"l. c #AFB0A2",
"z. c #B6B3A4",
"x. c #B6B0A4",
"c. c #B7B4A5",
"v. c #B6B4A7",
"b. c #B4B2A5",
"n. c #B8B2A6",
"m. c #B9B1A6",
"M. c #B8B5A6",
"N. c #B9B2A6",
"B. c #B5B3AA",
"V. c #B9B0A9",
"C. c #BAB2A9",
"Z. c #BAB6AA",
"A. c #BDB6AB",
"S. c #BFB7AC",
"D. c #BBB5AB",
"F. c #BFB9AE",
"G. c #BFBCAE",
"H. c #BCB9AC",
"J. c #B7B6B1",
"K. c #B9B7B1",
"L. c #BFBDB0",
"P. c #BCBAB3",
"I. c #BFBEB9",
"U. c #C0BDAE",
"Y. c #C1BAAD",
"T. c #C0B7B0",
"R. c #C1BDB1",
"E. c #C2BDB2",
"W. c #C1BFB9",
"Q. c #C4C1B4",
"!. c #CCC5B7",
"~. c #C3C2BC",
"^. c #CDC7BB",
"/. c #C9C4BA",
"(. c #CBC9BD",
"). c #C7C6C2",
"_. c #C8C7C2",
"`. c #CBCAC4",
"'. c #CFCEC9",
"]. c #D1CEC4",
"[. c #D1CFCA",
"{. c #D2D0C5",
"}. c #D4D2CC",
"|. c #DAD7CE",
" X c #D9D9CF",
".X c #D6D5D1",
"XX c #D8D7D2",
"oX c #DCDBD3",
"OX c #DFDED9",
"+X c #E1DED5",
"@X c #E5E3D7",
/* pixels */
"U -.3.#.3.( n 4...T ( U V ) ....[ k #.-.2.#.} F w.8.8.9.e.( Z s.C.g.C.j.4.D a.4.-.7.f.E ) g.4.9.4.[ V 9.;.;.:.:.t B :.8.8.] ] h ",
"5.9.4.4.a.@.E Y.A.x.S.9.} a.n.q.5.E -.4.5.4.9...4.d.Z.e.x.-.) w.a.9.e.a.9.E p.4.#.4.V.} | C.4.9.n.-.( Q.r.8.8.q.Y &.G.w.M.w.v.Y ",
"4.:.q.x.A.@.[ ^.x.Z.G.8.E d.n.4.d...} 2.e.9.e.} n.e.d.R.G.:.] Z.g.C.E.T.a.E 9.w.a.w.A.@.@.C.g.G./.-.S w.s.x.w.M.m &.G.9.x.v.H.B ",
"[ Q ..| :.) ( w.e.q.q.;.Z 4.9.@.*._ D ..q.4.3.F -.[ _ | E S m @.| @.-.@.@.m ) @.-.( | U S @.@.@.@.E y E [ ;.( } h ( 8.&.:.&.8.n ",
"@.E S s E ) ] O.[ A Y Y s P S g V P k T [ ( ( Z [ -.*.Y g ] ) Q [ ) E S -.) @.@.@.V ) [ Q @.[ P m | ] ..[ &.B S ] ] | ] ) m &.( ",
"L.L.b.E u.L.G.Z.w.) 8.v.q.u.8.) } q.-.-.@...@.w.q.n.Z.w.Q s.w.8.w.w.-.Q C.g.C.A.S.) -.g.8.d.e.@.P v.Z.r.w.U.] [ (.U.U.Q.x.Y s.x.",
"&.b.v.Y w.l.w.u.8.Y w.v.H.b.b.Q [ 9.-...[ ..E 3.r.:.9.U.] :.-.w.8.n.9.P q.e.w.d.R.E ..e.-.9.s.*.E x.w.:.w./.] | Z.x.Z.Q.s.Z :.*.",
":.b.w.B b.Z.v.Q.w.W u.8.w.<.8.B _ *.....4.x.E &.b.w.b.G.Y 4.8.q.4.x.:.m w.Y.d.w.s.S ..A.4.9.w.| P s.s.8.s.G.S ) Z.G.G.G.q.P w.:.",
"l A Y g W W W ;.A v Y ] Y A A Q E } ..F E F B E ) | Y | B Q W ) T @.Y s v E E z P Z z Q E Z Q P B [ ) S B Z P Y [ E K | Q m ) } ",
"A ;.0.8.w.&.B B q.:.w.w.v.} %.L.8.Z.e.( @.3.:.q.w.[ m ;.-.x.:.} Z -.:.| @.:.-.Q q.w.Z.q.-.B 4.h.x.Z.8.Y ) s.x.x.Q.=.S 4.x.s.s.:.",
"Y w.w.L.G.H.*.&.v.b.v.8.Z.P Q G.8.G.n.] *.q.8.-.w.| Q G.u.v.b.Z.Q 8.u.8.:.4.:.T 4.8.D.<.q.m q.E.w.x.G.{ *./.s.*.s.4.) h.q.q.x.Z.",
"Z 8.8.Z.R.Z.8.@.x.G.x.u.Z.] | w.e.e.q.Q ] 4.s.q.w.[ W v.b.v.b.b.&.8.0.0.0.u.8.T G.D.E.w.Z.Z :.w.G.D.E.| | B.L.s.G.q.) h.h.x.x.h.",
"m [ @.] *.| ] S Q Q B Q T S Z m Q M Y S P ) O.^ @.Y v [ | O.| ] T ^ { } ) ] ^ s O.=.{ { { s Z ) ) Y Q Z Z E :.| } ) h ^ ) E E E ",
"} } @.k T ..-.*.4.-.S *._ *.:.} ) z ) -.-.@.[ A W [ | O.W A ^ &.@.=.:.@.T T } Q O.} v ^ ;.O.O.=.^ Z { <.q.*.:.P E @.@.=.) h E -.",
"n.e.S._ | Y.w.n.e.q.T *.*.-.q.-.g.| 4.q.q.8.4.| :.h.u.u.0.O.<.B.0.0.0.<.{ O.B.K.Z.y.W O.B.k.k.q.h.{ q.B.L.B.L.@.@.4.0.4.u.E :.0.",
"r.8.A.} ) ^.-.q.n.d.( | 9...} m 8 ; 8 8 8 8 8 2 4 e 8 8 i 3 < e 8 8 8 q 3 3 e 7 7 e , > 8 3 v I @.Z s.u.h.B.B.*.{ :.u.<.x.Y 4.s.",
"-.@.@.P [ -.:.w.3.4.Z ) @.| @.,                                                   . % - 6 3 9 v ^ E @.4.8.u.x.K g 8.-.^ @.W Y -.",
"m W [ P Q [ Q z B P Z [ } Q U 1   X X                                             : d J +.o.H x L E ) Z Y K W z z Z r Z Y E Y ] ",
"Q 8.w.4.:.b.8.Z 4.w.C.A.g.3.E 8   + X                                     + + $ # 6 v ~ +.o.H L $.B.D.W q.0.w.b.b.| B w.:.w.w.x.",
"Q 8.8.0.:.b.w.S -.8.e.a.S.4.Q r   + O                                   % I X.u.}.,.I >.).`.+.X.K.oX].v <.s.b.x.Q.:.Y v.w.u.w.s.",
"Y [ | ;.:.:.*.B q.4.3.9.g.E m ;   + O                                   $ K X.i.'.>.R >.I.).+.o.K.oXoXK :.s.q.:.:.] B Q *.&.&.@.",
"] ^ W K | ] [ Y Z s n P ..Y E ;   + O                           < u H R L v / u.B.~ H +.J.P./ ! y.~.`.L ) [ ) [ [ [ Y Z P K [ [ ",
"R.w.8.Y b.8.b.M.s.E w.q.w.g.S.q   + +                           c R u.P.u.v { ~.oXX.J 6..XOX>.{ y.}.+Xq.w.8.[ 8.H.G.H.H.[ O.x.w.",
"w.8.q.A G.q.w.r.4.h G.n.-.w.g.4   + +                 # * : < 3 j L t.t.,.H { I..XX.! 6.[..X=.~ y.oX|.u.x.0.W <.H.q.w.{.W :.v.*.",
"-.*.} K <.8.r.3.Q Z q.q.n.e.T.7   + +                 e H ~ u.0.x R 1.t.=.N o.P.}.{ J 1.}.OX$.{ 0.W.oXh.w.w.P P | -.&.^ S W ;.:.",
"g P Q B Y B g z P Z .._ m V ) ;   X X                 6 N R >.+.u b $.0.+.j R 0.Z.! b o.B.J.! R <.K.D.z K | A m z z Y Q W P Q A ",
"| x.G.w.w.0.E 9.8.8.w.4.E :.9.r   + +       , v j ~ ` b b / 1.{ j J 1.I.0.C ~ Z.`.=.I 1.I.~.o.{ u.`.(.C :.x.q.b.0.Q :.x.R.b.H.:.",
"| v.x.x.b.v.Y H.w.q.9.*.) g.g.4 X + X       , H b o.>.C C X.6.o.v L 0.~.0.H ! P.'.>.L <.I.~.+.{ B.}.].K Z.w.8.w.v.P @.q.b.0.x.-.",
"[ Z.b.Q.v.b.S b.x.s.R.4.) 8.S.r   + + , 9 e i C C / O.C K o.,.{ v W 0._.6.C W K.'.<.W 1.I.W.$.o.D.oX].Z Z.q.0.8.Z.W 8.Z.Z.b.x.:.",
"W *.S } | | B | ] S @.[ S P #.;   + + e C C j d j ~ O.x d ~ $./ i J =.I.<.b R i._.+.K ,.K.I.{ / 0._.~.K 8.| *.-.A w A S l Y S B ",
"8.8.z ] :.8.:.3.-.z ..w.4.:.u.1   X X 9 c c d j J { o.v a ^ ,.O.i C o.K.0.b / Z.~./ b +.K.~.~ L B.[.{.=.<.A Y [ :.@.;.] B 8.:.0.",
"b.R.Q 8.x.w.M.w.x.Z @.R.g.Z.L.3   + $ x H N x v J X.+.C d { y.<.C R O.I.y.C o.~.oXO.L 0. XoXO.{ K.}.oXv.v.] :.v.w.v.s.*.S R.8.v.",
"Z.G.S -.x.s.r.Z.u.Z *.G.x.(.h.4   + # j K C c v L { +.C x X.1.<.v I <.I.0.C X.W.XX+.L <.`..X=.~ K. X@Xw.U.} *.r.w.Z.w.w.Z Z.r.M.",
"*.E s W [ ] ] Y | B ) E Q | ] ,   . + i b v j j H o.o.a e ! >.>.x H +.K.0.C O.I.'.o.L <.'..Xo.W u.`.].} | S } ;.Q &.] [ h | ] } ",
"&.[ 8.w.| S ;.*.8.:.:.B P W E ;     + u v c j i a ` { c j K / o.a C +.k.+.e R 0.J.~ C X.P.~.~ ~ 1.H.Q.[ ( V T n m *.*.8.-.-.] Y ",
"G.u.L.L.Z.| U.w.u.u.v.Y :.q.h.0   X @ a C H b d b =.+.J L ~ +.1.v ! y._.0.d { B._.+.R O.~.}.o.O.I.Q./.:.3.3.x.} Y Z.w.s.R.s.8.[ ",
"Z.G.s.8.R.[ U.x.G.Z.Z.] u.w.s.3   X # d H K H x C <.=.C H ~ >.0.x L 6.W.0.x X.K.'.=.I o._..Xo.{ ~.L.Q.9.:.8.w.] F A.s.w./.s.q.) ",
"Q | | Q | z | *.[ [ [ Y @.[ :.8   . + i b b c a v { +.b v R =.,.c R 0.I.1.x / P.`.>.I O.~.).X.X.q.Z.(.4.] ..| Y h *.| -.h.-.[ B ",
"Y s B B Q Y Y g | [ } ) S B ] ;   + + u b b x a b L / c j L +.+.u J 1.K.>.j L J.P.X.C X.B.u.~ { u.(./.P t Q ] Q ( ) B E ] E Q ] ",
":.Z G.Z.q.s.8.[ x.q.x.x.Q [ Z.0   + + a K J C C R ~ =.J C o.t.o.a L 0.~.t.C L J.}.>.K 0.}.I.{ X.u.oX|.Y B x.M.s.Y.:.T :.<.@.:.Q.",
"3.E x.8.4.e.w.( s.q.x.n.) _ C.3   o @ d K H b b R / =.C b X.t.>.j L 1._.6.v I I.oX=.~ 1.oX~.{ o.K.{.+X| h 8.s.8.x.-.P E.=.-.D.h.",
"} E 4.e.q.8.*.P g.w.9.8.) ) C.q   o + i H J N v J { >.J H o.0.o.j L 1.I.1.b R P..X=.R <.'.).{ X.B._.}.| Z :.w.s.w.4.T h.x.B.x.q.",
") Y m [ _ _ ] E n Z U P m h Q &   o o 7 j b v x C / { c x ! <.o.i C $.u.,.c J 1.B.{ b +.J.W.^ ~ u._.Q.Y m Z Z Y ) ) v Z } :.} | ",
"A.q.B 3.8.q.n.U.T ) 9.4.-.@.{ 8   + $ u N L C v ! +.X.C C / t.t.x H 0.P.1.b / u.`.,.K 1._.OX=.! B. X}.:.0.[ ] :.4.q.0.{ @.q.9.s.",
"n.q.k q.d.g.e.d.#.[ d.3.5.9.U 4   o # e b J b v L +.X.H H { 0.1.v b 0.~.1.C O.k._.<.L >.~.}.+.R B.`./.:.h.) [ Z.w.y.W.<.} 0.q.0.",
"e.9.V 9.9.q.4.9. .T 9.2.w.a.Q 0   X # e v H v b K +.o.b N o.y.6.c N t.~.0.H o.y.K.=.R <.~.).o.W u.'.}.-.0.Q [ 8.a.4.q.$.) k.C.a.",
") E h P k Z T ( D k T )  .[ P =   X % i b H j x J { / v x { 1.<.p C 1.B.=.x ! 0.k.o.b +.P.I./ L 1.B.u.B K z Y E P U C J C O.E ) ",
"-.4.3.9.) ..3.r.g.*.[ *.:.| #.1       % = > % * > 3 8 - & 8 e e > 3 e j x , e C J j < N { { b R =.<.k.=.w.-.3.@.S 4.-.y.q.7.m P ",
"9.9.e.m.*.&.m.9.x.8.Y w.| -.q.g 1 8 7 3 4 e = 1 8 4 0 i ; 0 0 e e r e 5 v s k k s C 2 v L J C } =.) 5.5.9.w.5.-.| E.e.g.A./.U ) ",
"Y.r.e.r.....n.r.w.8.| w.:.:.Z.| | 4.0.h.h.L.@.@.0.h.Z.:.P *.0.q.u.q.@.=.u.0.u.q.h.h.~ q.D.u.:.0.g.E 5.T.w.C./.@.E C.j./.A.T.P @.",
"} E (  .F B T Z A z z F ] Q F l m P Y ^ m Y z Z S Q ] z h ^ *.| Y K P O.O.] { T T ) m } <.@.P K } Q ) #.@.U ) E T 4.@.3.#.#.r M ",
"_ V E -.| ] | ( n Q &.&.&.] V [ *.*.*.-.C Q } -.@.*.*.Y *.8.4.-.} k ] 4.4.4.:.P ) u.<.:.<.o.v P @.9.-.4.-.M ) 9...3. .P @.*.P E ",
"Y.@.-.n.d.x.H.m.] 8.q.8.9.b.] b.x.9.x.M.[ &.s.w.w.v.8.Q Z.Q.Z.Z.R.C 8.0.0.B.B.| P u.h.0.B.4.) ].e.2.9.A.| V g.d.e.m.n.F q.q.d.r.",
"n.} -.d.e.r.r.9.Q 8.3.4.w.Z.) 8.v.x.U.Z.[ ) w.M.9.Q.8.Z 4.M.b.Z.b.Z u.q.<.q.D.=.@.D.D.h.D.{ B D.Y.N.N.Y.@.V 4.9.9.q.d.V 9.5.r.q.",
"@.P @.q.4.9.4.-.w | -.| Q S g [ &.-.*.| T B ' &.] 3.| g S F B P P h Y ) P P [ v C ^ T ) O.K C } @.2.*.*...n F T ] } ..V | } ..2.",
"3.E ....Y T T T ) *.E Z [ W Z Y V S g B ] F z g z Q &.] ] Y G ..-.w.=.4.E Z :.] { @.P Z P ^ <.[ _ g F *.*.*.8.n E ..*.( V k h ..",
"e.g.Y.#.) 5.a.3.q.u.4.U s.<.8.8.w.Y &.M.8.:.:.| ' U.3.q.G.M.V q.d.s.a.A.[ 3.W.A.n.W.5.Q S.C.q.n.@.( Y.Y.e.e.!...Y.9.Y.r.r.] } 9.",
"e.9.T.) P w.s.n.q.a.4.P q.8.8.:.:.S } 9.8.8.8.] T x.8.w.w.w.Y Z.A.S.s.x.) *.S.C.g.T.-.E w.9.e.d.3.( e.m.Y.d.m.D 3.9.e.r.9.T ..2.",
"A.9.S.E B 9.-.9.h.s.<.S :.0.u.8.8.Q [ 4.w.8.4.E ( w.w.r.4.:.Z | -.4.*.4.E | 9.9.8.a.*.| 9.4.a.q.*.E *.5.Y.9.9.P 9.N.e.m.4.F -.-.",
"T M M k z | Q [ Q P T k Q ) ] Q ] Z P ( ) v C h S Y Z B m Q V E S T Z ( F E ) ) B S E Q [ ) Q U E D ( E ( s V n V F Z Z n s ( _ ",
"5.@.M 4.g.C.C.g.Q P -.4.w.:.[ Q 8.:.4.w.8.B { 4.<.:.*.[ | Z.D.L.a.g.-.e.a.C.a.q.[ ) j.j.a.S.| #.e.e.A.d.9.P -.q.3...-.} Q 3.9.g.",
"A.9.f 9.S.9.a.q.-.) w.Z.u.8.@.} u.4.=.4.u.Z } 8.<.q.k.<.$.h.u.q.g.j.[ -.e.C.w.a.#.) T.j.9.Y.E #.9.5.d.n.a.Q w.C.A.5.n.-.) g.5.5.",
"a.7.m q.C.C.D.W.0.| B.x.<.u.:.| B.B.,.<.P.) <.q.y.h.k.o.o.u.k.h.g.C._ #.a.j.9.j.-.@.C.g.9.S.U 4.S.a.S.T.a.U w.w.e.9.e.-.E f.f.7.",
"-.#.M @.| -.[ 4.) T w.q.@.u.O.C I <.$.) $.c o.,.O.$.o.C R =.o.E Q [ f m E P k D S S ) [ )  .s E -.@.4.4.) s #.#.-.9.@.) f _ 4.[ "
};
