/* XPM */
static char *_fba582d0a69465ad0556f1fc1d9a159Pz12P71DADaKyOJh[] = {
/* columns rows colors chars-per-pixel */
"64 64 256 2 ",
"   c #020101",
".  c #0B0100",
"X  c #0C0A03",
"o  c #08070A",
"O  c #130401",
"+  c #1B0500",
"@  c #140C03",
"#  c #1B0C02",
"$  c #140D0B",
"%  c #1B0D0C",
"&  c #11050C",
"*  c #1C1303",
"=  c #15120C",
"-  c #1B120B",
";  c #171206",
":  c #1B0C14",
">  c #160B14",
",  c #0D131D",
"<  c #151212",
"1  c #1C1413",
"2  c #1C1913",
"3  c #18151A",
"4  c #0B0F0D",
"5  c #220501",
"6  c #220C01",
"7  c #270905",
"8  c #241301",
"9  c #271708",
"0  c #361D04",
"q  c #241C1B",
"w  c #261916",
"e  c #27090D",
"r  c #382305",
"t  c #272319",
"y  c #372515",
"u  c #2F2009",
"i  c #0C1424",
"p  c #141526",
"a  c #281C22",
"s  c #351F2C",
"d  c #2C2425",
"f  c #37302E",
"g  c #460B02",
"h  c #471E1C",
"j  c #442905",
"k  c #4F3615",
"l  c #792E1A",
"z  c #443C3B",
"x  c #473B37",
"c  c #4F3727",
"v  c #732F26",
"b  c #3C413C",
"n  c #6C5212",
"m  c #7C6713",
"M  c #4A463A",
"N  c #55483B",
"B  c #4A462C",
"V  c #775B39",
"C  c #6C5233",
"Z  c #7A6230",
"A  c #5D4500",
"S  c #3E3F41",
"D  c #473C43",
"F  c #533D42",
"G  c #4A4745",
"H  c #544E43",
"J  c #564B49",
"K  c #5C554C",
"L  c #595548",
"P  c #5C5A54",
"I  c #544D52",
"U  c #64594A",
"Y  c #635D52",
"T  c #665C58",
"R  c #755B46",
"E  c #7C6446",
"W  c #646254",
"Q  c #6A6255",
"!  c #65625A",
"~  c #6B645A",
"^  c #6C6A5D",
"/  c #6A6956",
"(  c #72685C",
")  c #6D6853",
"_  c #6C6765",
"`  c #736D63",
"'  c #786C69",
"]  c #747264",
"[  c #7A7366",
"{  c #7B756B",
"}  c #7C796C",
"|  c #767569",
" . c #7D7C74",
".. c #7B7775",
"X. c #6D6C6B",
"o. c #6B5E68",
"O. c #866C18",
"+. c #8C7014",
"@. c #835E31",
"#. c #B2503C",
"$. c #89652A",
"%. c #876538",
"&. c #916F2F",
"*. c #DB4A31",
"=. c #D0703A",
"-. c #836442",
";. c #876748",
":. c #8B7150",
">. c #827B6D",
",. c #817869",
"<. c #837D72",
"1. c #857B76",
"2. c #957961",
"3. c #A76C4D",
"4. c #CE5542",
"5. c #C77E49",
"6. c #812925",
"7. c #7E8170",
"8. c #CF823F",
"9. c #D4B83B",
"0. c #F7CC28",
"q. c #F4D32A",
"w. c #F6D235",
"e. c #EECD33",
"r. c #EFD41E",
"t. c #BB8758",
"y. c #88826D",
"u. c #848275",
"i. c #8A8475",
"p. c #84837B",
"a. c #8C857B",
"s. c #8C8A7D",
"d. c #84897A",
"f. c #928B7D",
"g. c #95897B",
"h. c #94917E",
"j. c #A69378",
"k. c #B18B6C",
"l. c #B6A466",
"z. c #C98348",
"x. c #CE9052",
"c. c #E39C50",
"v. c #D6B949",
"b. c #D5B658",
"n. c #EBBA5D",
"m. c #F4B65E",
"M. c #CDA66C",
"N. c #D5A76B",
"B. c #CBA775",
"V. c #D3AA76",
"C. c #D1B86C",
"Z. c #ECBA6B",
"A. c #EBB868",
"S. c #F3B665",
"D. c #F1BA64",
"F. c #F3B66B",
"G. c #F3BA6B",
"H. c #F9B768",
"J. c #EDBB74",
"K. c #ECBC7B",
"L. c #E8B877",
"P. c #F4B673",
"I. c #F5BA75",
"U. c #E7AD69",
"Y. c #CB9265",
"T. c #F1D051",
"R. c #ECC570",
"E. c #DAC655",
"W. c #A0893D",
"Q. c #7B7F82",
"!. c #857F83",
"~. c #7A8284",
"^. c #8D8C83",
"/. c #8D8D8B",
"(. c #878585",
"). c #948D83",
"_. c #9A8D83",
"`. c #938D8B",
"'. c #988A89",
"]. c #8C928B",
"[. c #8B9287",
"{. c #949285",
"}. c #9A9385",
"|. c #94928C",
" X c #9B958B",
".X c #9D9A8D",
"XX c #999A89",
"oX c #8C8D93",
"OX c #8D8D98",
"+X c #938D94",
"@X c #968D96",
"#X c #8B9294",
"$X c #869292",
"%X c #9D9B92",
"&X c #979393",
"*X c #A29B8D",
"=X c #A2978A",
"-X c #A49D93",
";X c #A79B96",
":X c #B19E9A",
">X c #9CA18F",
",X c #A5A38D",
"<X c #A5A295",
"1X c #AAA395",
"2X c #A5A399",
"3X c #ABA59A",
"4X c #ACAA9C",
"5X c #A9AA98",
"6X c #B2AB9D",
"7X c #B2A796",
"8X c #AEB29D",
"9X c #B7AC96",
"0X c #ADACA1",
"qX c #ACA5A2",
"wX c #B3ADA3",
"eX c #B7ABA6",
"rX c #B4B2A4",
"tX c #B9B2A5",
"yX c #B6B4A9",
"uX c #BBB5AB",
"iX c #BDBAAD",
"pX c #B9BBA5",
"aX c #BCB7B1",
"sX c #ACAEAA",
"dX c #9D9CA5",
"fX c #D8B785",
"gX c #CAB28D",
"hX c #EABC84",
"jX c #C1BBAD",
"kX c #C1B7AE",
"lX c #C2BDB2",
"zX c #C7BAB5",
"xX c #BCC2AE",
"cX c #EAC288",
"vX c #F0C388",
"bX c #C8C3B7",
"nX c #CECAB6",
"mX c #F3E4A8",
"MX c #98A6C9",
"NX c #9DA7D2",
"BX c #A7B1D1",
"VX c #ABBBE4",
"CX c #ABBBEC",
"ZX c #A9B6E8",
"AX c #B0BAEA",
"SX c #B4C2D4",
"DX c #FFFED5",
"FX c #CEDDF6",
"GX c #D2DCF7",
"HX c #D0DDEC",
"JX c #FDFEED",
"KX c #F9FAE6",
"LX c #FEFEF3",
"PX c #FBFEFA",
"IX c #F5FCF3",
"UX c #D2DBE7",
/* pixels */
"`  X*X_.*X>.U -Xf.[ >.` Q <.f.f.a.K _. X=X_.a.( 5X<X5X<XwX<.W eXaXT ; ; a o.eX;X%XXXuX' >.eX-XJ       K |.|. X XM W XX,X2Xu.i.K ",
"-X3X-X-XwX).{ jXuXtXiX1Xa.wXtX3X;X{  X-X1X-X1Xf.<XwXtXwXrX}.<.eXeXT # # a ' :X-X{.XXrXa.a.eX XJ       ! 0X4X2X4X] h.iX4XpX4XtX[ ",
"-X.X3XrXuX).i.nXrXuXiX<X{ wXtX-XwX).s.=X6X3X6Xa.rX6XwXlXuX.Xi.eXeXQ 7 7 h ' :X3X4X5XlX).'.aXtXY       P 0XyX3XrXY h.iX1XrXyXiXQ ",
"i.} f.s..X<.>.4X6X5X5X}.~ -X1X)._.1.( f.4X-X*X( }.a.u.s.{ ^ x K J v l l v c N H ] } a.' f G G ~  .p. .P M G M  .L >.,Xh. X{.1XY ",
").| ^ H { <.u.^.i.^ ] ] H ] ^ H Q ` K [ i.>.>.~ s.}.}.] K ] 2 @ 5 v 4.4.#.g 6 @ H ( 1.' 3      .LXLXLXu.    X ! u.u.s.u.<.Y _.<.",
"iXiXrX{ 0XiXiXuX4X .<XyX5X0X<X<.a.3X X X).f.).4X4XrXuX<X<..Xt 6 7 l *.*.#.g 7 ; Q <.;X X3 o   (.LXKXPXu.  . X | nXjXjXbXrX] wXtX",
"{.rXyX] 4X0X4X0X<X| 4XyXiXrXrX} i.1X Xf.i.f.[ *X4X*X5XuXu.^.2 # 5 l *.*.#.g # = ! X.1.+Xp i , (.PXLXLXu.  . X  .uXrXiXbXwX~ .X}.",
".XrX4XW rXiXyXbX4X| 0X<X4X%X2XW <.}.f.f.-XrX[ {.wX4XwXiX{ s.t # 7 l *.*.#.g 6 = < $ = p dXMXsXUXIXLXLX .    . | uXiXiXiX5X` 4X.X",
"L ^ | H | | } XX^ L | i.] / ^ } { s.f.~ } ` W [ <.).{ i.~ ` 2 % 7 6.*.*.#.g 7 : &     i MXAXVXUXPXLXLX .    X _ s.{ ^ s.} Y 1.s.",
"! XX5X2X4X{.! W 4X.X0X5X0Xu.^.iX<XtX6X} f. X*X1X4Xi.K  X%X%Xt e 7 v 4.4.#.g e > &     i NXCXVXHXIXLXLX .    2 |.bX{.^ %XrXwXeX X",
"] 4X4XlXiXiX{.{.rXrXyX<XiX] <.lX<XiXiXi. X<X<X}.0Xs.! ~ K ! q @ e h l l c 7 : > o o   i NXCXVXGXPXLXLX .X   = `.wX-X<.wX3X5XrXuX",
"~ <X2XiXlXiX<X).yXyXrXrXiXu.i.4X4X4X5X} s..XrX5X5X^.M $ = $ . 1 % 7 7 7 6 @ : > o o   i NXCXCXGXPXJXLX .    1 |.aXqX<.wXwXrXeXeX",
"Y i.).u.}.s.u.^ } { Q u.` ~ ^ Y <.~ ] W ` { s.<.^.` f X = $ 1 % % e 7 7 % $ : > o     , MXCXCXFXPXJXLXu.    1  .(.<.K  .<.{ { [ ",
"i.i.).K [ f. X}.*X}.^  X<..X-Xi.<.Y i..X<X.Xu.Y _ 1.G d q q 2 q w w w d q q a a 3     , MXCXCXFXPXKXJXu.    $ P ..`.).{.<.L {  X",
"tX4XiX<.s.jX4XtX6X4X` }.}.=X1X.XuX<.-X4X-X.X! t 2 d H p.1.(.(.(.(.(. .Q.~.~.!.(.f .   3 MXCXZXGXPXJXLXu.    1 ..`.-X2X-X0X{  X3X",
"wX<XuXa.<.nX X3XwXuX{ ).3Xa.f.*XrX>.-X0X2XwXQ @ - X H |.&X`./.|.[.].$X#X$X#X/.&XG     3 MXCXZXGXPXJXJX ..   < 1.p.%X0X%XrX] -XwX",
" X).h.^ d.}.%XqX-X-XT a.s.f.h.y.}.>.>.).s.).N + 6 O H [.`.`.`./.[.[.[.[.$X]./.|.G     , NXCXZXGXPXKXLXp.    < P L <X X>.).| ]  X",
"T | u.^ } d...P Q ` ~ 1.a.i.) ,.y.,.1.P z x C ;.%.E >.|././.|.^./.[.^./././.`.|.G     i NXCXZXGXPXJXLX .  . X P P ~ M / ] { ] u.",
"} <X4X>XXXrX<X~ -X3XuXtXeX-X[ 6X8X4X%Xd & # %.hXK.cX7X`.oXoX].|.oX+X+X@X+X+X`.|.G     i NXCXVXHXPXJXJX .    2 &XwXs.! 4XXX4X4XrX",
"} <X<X5X.XrX4X^ XX*X6X6XuX;X>.jXrX4X;Xa : 7 $.J.G.L.7X'.@X&Xs.h.'.'.'.'.'.'._._.G     i NXCXVXHXIXJXLXp.    $ %XbXXX| rX4X4X4XwX",
"` i.s.}. X.X}.W ,X,X.X1X6X<.Y ` ^.<.1.w e 5 @.I.F.K.9X1.1.1.g.j.j.j.j.j.j.j.j.j.N     i NXVXVXHXPXJXLX .  . 2 /.%Xu.W } {.{.{.).",
"u.<.{ ` ).<.i.] / N K ] a.{ ,.' M T >.w % # %.K.F.L.-.9 9 f gXfXfXfXfXfXfXfXfXgXC     p NXVXVXHXPXKXLXu.    . X.i.i.] / ` ^ i.i.",
"lX0X2X` eX1XwXpXyX} 4X4X3XeXzXeX( =X7Xt % # %.L.Z.vX-.# ; 0 V.L.L.A.Z.Z.A.Z.L.fXV .   p NXVXVXHXPXKXLXu.    = |.iXiXiXiXd.f.rX4X",
"4X<X3XQ jX3X3XwX%XL aXyX XtXeX;XU =X;Xw : O %.K.Z.K.E O - u N.P.A.n.D.D.A.A.A.K.V     i NXZXVXFXPXJXLX .    X /.iX5X4XnX} XXyX}.",
"{.XXs.` *X X-X`.| T ^.%XaXwXzX_.U { ..t $ # %.L.G.J.E * X r N.P.S.D.S.S.D.D.Z.R.V .   i NXCXVXFXPXJXLXu.    X P s. X{.} ^ | }. X",
"L ] } W ! w 2 1 q 1 t d J ~ ,.N w 2 2 $ $ # $.R.S.I.E # ; 0 N.F.F.F.H.H.S.D.Z.hXV .   i NXCXVXFXPXJXKXu.    X T P K ] } } ] } ! ",
"].0XiX4X%Xt 1 - # * # w ' 3X1XU - = 4 3 - 8 @.J.A.vX-.+ ; 0 N.G.F.F.P.P.F.F.G.hXV .   i NXVXVXFXPXJXLXu.    2 &X2X} .XrXlXrXiX.X",
"^.rX0XpX2Xq : % # 8 # 9 ' eXrXW @ = < $ O 6 %.K.K.hX%.6 # r N.D.S.F.P.P.F.F.G.hXV .   i NXVXVXFXPXLXLXu.    < &XyX` s.2XrX2XrX X",
"(.iX4XxX2Xa : # c E -.R N T ~ f % @ 9 R -.%.-.;.-.%.%.%.Z &.U.S.D.D.F.F.S.S.G.K.V .   i MXVXVXGXPXLXLX7.    4 /.yX} <XpXuXrXrX.X",
"' }./ s.p.q % # -.fXcXgXy # - @ % # r gXvXhXV + + 6 %.cXhXL.I.D.D.D.F.F.S.D.G.K.V .   i MXVXCXGXPXJXLX .    X ^.^ M ! ^ K ] ^ ! ",
"-X1XU 7.(.d : 5 %.L.cXV.0 + $ - @ 6 0 B.L.vX-.6 9 + $.R.J.J.A.G.A.A.F.P.F.Z.Z.K.V .   , MXVXCXGXPXJXJX .. . . ..%X).{.u.W <X X2X",
"yXuXy.<XqXf w 0 %.B.B.k.k 0 y 9 % # 0 B.J.K.-.# # # $.J.F.I.F.Z.A.A.P.P.G.Z.Z.K.V     , MXVXCXGXPXJXLXu.    = %X4XyXwX}.^ jX2XyX",
"uXzX` ).yX.X*X7XR u 9 k l.B.V.V % % 0 M.J.R.%.# * 6 $.K.P.F.G.Z.Z.G.P.P.G.A.A.R.V .   p MXCXCXGXPXLXLX7.  o 4 >X8XrXsXqXW iX4XyX",
"|...J ` s.7.7.] H - @ y M.K.hX%.8 # 0 M.J.K.Z 8 # # %.K.I.F.G.G.A.Z.P.F.F.G.D.J.E .   , MXCXVXGXPXJXLX(.    4 d.} ).a.a.J s.u.s.",
"[.u.<X5Xs.] {. XL @ @ 0 fXhXhX%.+ + j M.K.hXE # # 6 %.K.P.F.F.F.G.G.I.S.H.H.m.J.V . . p NXZXVXHXJXKXJX .  o X L Y _. X3X}.*Xu.` ",
"xX8XiXiXyX^.uXwXs.~ U B V %.%.%.%.%.&.U.P.hX;.O % # Z N.c.c.c.c.c.x.c.c.c.c.c.N.V O . p NXCXVXHXJXKXJX .    1 >.' tX7X6XkXwX4Xp.",
"yXjX6X7XjXi.zXuXuXiXuX>.9 + + -.cXJ.Z.G.P.hX;.+ % + C x.z.5.5.z.z.z.z.z.8.z.=.t.k .   i MXCXVXHXIXJXKXu.X   $ ' ` kX6X6XnXwXqX1.",
"} {.a.1.f.K '. Xs.u.^.~ w 6 + E K.D.H.S.H.L.;.# % # C t.z.z.5.z.z.x.z.5.5.z.z.t.n . X ; sXBXBXUXKXDXDX:.. @ @ ( K ^.i.{.wX Xs.~ ",
"] M Q Q } ` ' I 1.{ <.) j 0 0 3.J.S.H.m.H.L.-.# % # C k.t.t.t.t.t.t.k.k.k.3.3.3.A 0 8 r l.gXgXmXDXmXDXW.8 8 r U ] X.P | p...{ i.",
">XW iXuX<XrX;X(.( w w k k.V.M.N.Z.F.H.m.S.hX%.# - # C k.k.k.k.k.k.k.j.j.2.0 7 5 m v.v.b.R.R.R.R.T.T.T.T.9.v.l.r ; < b #XdX|.h.bX",
".X| rX<X<X4X4X} T % 6 0 N.R.A.Z.I.P.G.S.S.K.-.@ $ $ H g.g.f._.g.g._.)._.i.@ . O m T.e.e.0.0.0.0.0.0.0.0.q.T.b.9 .   f bXoX|.pX9X",
"s.{ -XwX2X<X}.` T % % r Y.D.G.F.J.J.I.G.G.K.%.# < 3 I  X`./././.).`././...= . . O.T.T.T.w.w.w.w.e.w.w.w.w.T.b.8 . X f sXsXaXrX,X",
"1.' T a.<.>.y.} f 1 % y N.Z.U.P.P.F.n.n.m.J.%.# & & I @XoXoX#X#X`.`.|.#X(.I G M C Z $.m m m m m m m m O.m m Z c x z G _ p. Xi.g.",
"kXqXT -X<X1XrXjXM % % 0 M.Z.I.P.Z.G.D.D.D.J.%.6 : > I &XoXoXOXoX+X`./.].oX(.#X|.B O . O O . .   . . . . O . * f.;X:X3Xa.`.qX-X6X",
"rX4XK 4X0XrX6XrXJ O % 0 M.J.J.J.Z.Z.A.Z.J.K.-.# % : J @X+XoXOXOXOXOX].]./.#X#X].G       . .   . .   .       . 2X5X5XlX X(.qXqXqX",
"4X2X~ 5X2X4X<X;XK w w k k.V.M.N.M.V.M.M.V.B.R 9 w w J './.oX+X+XOX#X].].^.|.]./.I 3 < X * 8 8 8 8 # * ;   . 2 ^.4X,X4X_.1.eXaXyX",
">.{ K ' K ~ ' 1.~ N ~ ` y 0 r r 0 r r 0 0 r f z S S ^ }.|.]./.oXoXoX/.^.).`.oX#XoX.. .y.l.M.V.M.N.V.B.V O % 2 ^ ! ] _ _ ~ s.] ..",
" X*X*X:X>.f.-XwX4X Xu.i.w 9 # # % $ % @ # @ f G G G ^ ^.].]./.+X#X|./.`.'.'.oXOXOX+X/.j.C.A.J.I.G.Z.vX-.5 - 1 p.^ -X).3X2X<XP X.",
"3X3X6XtX}.{.tX5X6X<X{ %Xt @ ; - $ < @ ; ; = d G M M X.oX#X#X@X/.].|.`.`.`.+XOXOXOX+X`.j.C.R.L.P.S.A.K.%.5 % a (.(.lX6XwXuXbX' 1.",
"kX6X6X6Xf.f.tX6X4X*Xi..XW K K K J P K w @ = f G M B P X._ _ X._ _ _ _ _ _ _ _ X.X._ _ :.C.R.J.P.S.A.vXV 6 e d ..{ uXtXbXtXkX' '.",
"a.[ >.a.( Y [ ~ ^ Y Y ` u.u.^ L _ ' ..1 & : s D M c x M z f D z D S z z z z z z D D x N C.D.F.F.G.J.cXV 6 O 1 ' { -Xf.*X}._.M T ",
"<.Q {  Xs.u.s.>.L } }.^.).i.^ i.}.i.).w w : s F x x x M z z G G D D z x z z x x x F F C V.U.P.I.L.L.hX-.# 9 w `.).=Xa.( f._.` { ",
"kX). XtXwXrXiXtXi.5X<X<X<XwX .8XpX,X*X9 $ $ a D D D D z x x x x z x x x z z x x z x x U l.B.V.B.V.B.gXE 9 9 f 3X6XtXtX( 3X3XwXwX",
"tXa. XwX6X6XwX1X} -X}.5X4XlX<.2X8XpX5Xt @ $ f G D D f 1 1 w - - 1 - - - 1 3 1 - f z z x y 0 r r 0 j 0 E y.L {.-X3X7XtXQ 1X,X6X3X",
").` ).3X-X1X-X Xx i. X}.{ ` H u.s..Xi.t $ $ d z z M t @ @ - @ % : : % ; < < < < d G D z - @ * * 8 O 8 U i.W [ [ i.a.g.Q g.i.f.XX",
"*X{ f.f.] [ [ { <.}.} ~  . .~ ] _ _ N * 8 # y B c B y @ @ - @ % > > # ; = $ < $ y B c c 8 * * @ * # # H }.h.*XL [ f._.,.Q L L f.",
"6XwXjX_.1.-XwX*X5XwX.X{ 0X.X0X X;X' :.j r r k n n n j # # - 1 q a q t t t @ : 6 j n n A j r j 8 # : - Q 6X6XnXi.kX3XjXtX6Xy.i.7X",
"6X3XjX<.` 4XwXtX2XwX-X` 2X<X%XT a 9 k l.v.v.v.v.v.b.%.6 + q ~ qX3X3X5X-X^ q % 5 $.n.n.v.v.v.b.$.# > $ ! iXwXtX( *X1X6XwX7X] g.=X",
"uX3XiX[ W 1X}.3XrXwX%X` %X0X3XT : 8 0 v.e.r.q.0.e.T.$.5 9 w K d.*X*X}.-X_ w e 7 +.e.0.0.q.w.T.O.# > $ T uX1X1X] 1XuX6XtX-X( }.}.",
"[ T T K K a.{ i. ._ ` P { <.u.M & # r E.w.r.q.w.w.T.&.5 # 1 ! } ` ] T 1._ w : + +.T.w.q.q.w.T.O.# 1 $ M 1.H Y U Q ` ~ ~ U H ,.>.",
"-X).T -XeXuXuXyX<.`  X-X2X|.(.G 1 @ 8 Z O.+.+.$.&.&.c # $ d 2XyX0XyX&XqX;Xs : # k &.O.O.O.O.&.k # < 1 Y -X' =XwX*X). Xa.{ *X3XwX",
"uX3XJ 3XiX3XwX4X{.u.yXuX0X2X).G < - * # + 8 7 + 6 + # % - q %X0XyXyX(.&X;Xa > w # # @ * # + # # % $ $ ~ eX>.3XeXuX-XuX}.<.rX-X1X",
"wX;XY 3XuXuXuXzX%Xs.yX0X%XqX&XH $ $ % - # # # - ; @ # - $ t ;XtXtXrXa._. Xd % & $ ; - ; # - # @ ; - @ ~ eX' qXqXqX3X4X{.[ wXwX;X",
"}._.T ).s. Xi.-X<.{ 4X5X|.3X^.f % - : & 3 & 3 $ $ 2 ; @ = w 1.{ { y.K U Q 9 - $ < $ < $ $ $ @ - @ - # K a.G '. X X3X^. .J i.-Xa."
};
