/* XPM */
static char *_626350733524e998b9385a0bb567baakBrTy4uVbfehSRVR[] = {
/* columns rows colors chars-per-pixel */
"64 64 173 2 ",
"   c #5D1B1D",
".  c #4B2A12",
"X  c #54361A",
"o  c #622628",
"O  c #612F2D",
"+  c #673627",
"@  c #5E4122",
"#  c #454135",
"$  c #4A4539",
"%  c #4E4B3C",
"&  c #524E3E",
"*  c #6D4B2C",
"=  c #544E43",
"-  c #4F5042",
";  c #555245",
":  c #5A5245",
">  c #565749",
",  c #5B564A",
"<  c #5D5A4D",
"1  c #5C5753",
"2  c #5F5D50",
"3  c #60574E",
"4  c #615B4E",
"5  c #635D52",
"6  c #655E58",
"7  c #646645",
"8  c #63604F",
"9  c #747B4B",
"0  c #656255",
"q  c #6A6456",
"w  c #666459",
"e  c #6A655A",
"r  c #6D6A5D",
"t  c #70675E",
"y  c #716C5E",
"u  c #717351",
"i  c #6C6761",
"p  c #6F6C61",
"a  c #726E62",
"s  c #786F66",
"d  c #746F6B",
"f  c #757265",
"g  c #797365",
"h  c #777469",
"j  c #7B756A",
"k  c #77786A",
"l  c #7D7A6D",
"z  c #7F7C71",
"x  c #886643",
"c  c #916D49",
"v  c #937657",
"b  c #80776D",
"n  c #817B6E",
"m  c #837D72",
"M  c #887F75",
"N  c #827D79",
"B  c #887F78",
"V  c #768441",
"C  c #788642",
"Z  c #83904E",
"A  c #89964D",
"S  c #8B9A4D",
"D  c #8B9B50",
"F  c #919C5C",
"G  c #93A352",
"H  c #9AA65E",
"J  c #828364",
"K  c #83806F",
"L  c #8A9B67",
"P  c #919A62",
"I  c #858275",
"U  c #898476",
"Y  c #8B8875",
"T  c #868379",
"R  c #8B857A",
"E  c #8D8A7D",
"W  c #90877E",
"Q  c #918A7E",
"!  c #94917E",
"~  c #9EA473",
"^  c #8A8581",
"/  c #8E8C81",
"(  c #908780",
")  c #938D82",
"_  c #988F85",
"`  c #938E8A",
"'  c #988F88",
"]  c #959284",
"[  c #999386",
"{  c #97938A",
"}  c #9B958A",
"|  c #9D9A8D",
" . c #9B9692",
".. c #9E9B91",
"X. c #A0978D",
"o. c #A19B8E",
"O. c #A09790",
"+. c #A39D92",
"@. c #A89F95",
"#. c #A49F99",
"$. c #A89F98",
"%. c #A3A08F",
"&. c #AFAD8C",
"*. c #A5A295",
"=. c #A9A296",
"-. c #A6A499",
";. c #ABA59A",
":. c #A7A89A",
">. c #ADAA9D",
",. c #B0A79E",
"<. c #B1AB9E",
"1. c #B3B09F",
"2. c #B8BD9F",
"3. c #ACA6A1",
"4. c #AEABA1",
"5. c #AFAFAB",
"6. c #B0A7A0",
"7. c #B2AAA0",
"8. c #B4ABA2",
"9. c #B2AEA1",
"0. c #B4ADA3",
"q. c #B5AFA3",
"w. c #B5ADA2",
"e. c #B7AEA5",
"r. c #B6ADA4",
"t. c #B3ADA2",
"y. c #B8AFA5",
"u. c #B8AFA6",
"i. c #B3AEA9",
"p. c #B8AFA8",
"a. c #B3B0A1",
"s. c #B6B0A4",
"d. c #B6B3A4",
"f. c #B7B3A7",
"g. c #B7B4A5",
"h. c #B4B2A4",
"j. c #B9B2A7",
"k. c #B9B2A6",
"l. c #B6B3A9",
"z. c #BAB2A8",
"x. c #BCB3AA",
"c. c #BBB5AA",
"v. c #BDB6AB",
"b. c #BFB7AC",
"n. c #BBB5AA",
"m. c #BDBAAB",
"M. c #BCB9AA",
"N. c #BDB9AD",
"B. c #BCB9AC",
"V. c #BCB7B3",
"C. c #BEBCB0",
"Z. c #C0B7AE",
"A. c #C1B9AF",
"S. c #C1BBAF",
"D. c #C1BEAF",
"F. c #C1BBAE",
"G. c #C0BCB0",
"H. c #C7BEB5",
"J. c #C3BCB2",
"K. c #C8BFB8",
"L. c #D3D2A7",
"P. c #C3C0B1",
"I. c #C4C1B4",
"U. c #CAC3B6",
"Y. c #CAC5BA",
"T. c #CEC8BC",
"R. c #CECBBE",
"E. c #C7CAC2",
"W. c #D0D1CD",
"Q. c #D3D3D1",
"!. c #ECE6C6",
"~. c #EEEFEF",
"^. c #F6F7F7",
/* pixels */
"g } o.[ o.j 3 +.Q j n a q m Q Q U 3 _ X.X.) U t ;.=.*.:.<.n r <.x.7.x.y.X.r ,.@.X.+.8.g m e.X.;.+.I q :.[ } } } & 0 o.o.*.I I > ",
"@.=.o.+.r.) j b.v.j.b.=.E 7.j.>.@.b [ +.@.+.;.Q +.r.n.9.s.} m >.e.@.>.7.;.g >.X.[ X.x.U R y.+.;.j.| m P.<.-.*.<.y ) D.>.g.>.f.h ",
"+.o.;.s.N.] R T.r.v.A.+.j <.s.+.y.Q R X.<.;.<.R j.<.r.A.N.| U v.e.y.H.Z.8.j ;.,.8.;.b._ W x.e.Z.U.} r :.<.f.:.f.5 ] D.:.s.s.M.q ",
"m n Q Q } n n <.<.;.;.[ r +.=.) [ M y Q ;.+.} y } U m R j r 0 ) R ) o.) ) 5 M ) [ l W s r ) ) _ ) k % h Y } n Y > l +.) | Q *.4 ",
") l r = l I I ) I e f f = a r = 6 a 3 g R n S S S S S S S S m l u m j r [ m ) ) ) q m U l ) U a 5 E I ] R ] q y I I E Y I 0 ] n ",
"N.G.9.l >.N.N.n.>.m *.s.:.9.:.m R =.[ 9 u S S S S S S S S S u S ;.>.| l x.r.n.x.A.M | e.*.r.7.) a s.f.9.>.M.n Y T.M.M.P.s.f <.a.",
"] f.s.f :.9.>.h.-.h :.n.M.s.h.l R !.!.!.!.L.S S S S S S S S S S S j.;.a :.>.7.e.J.j ) 7.| ;.r._ j s.:.+.9.Y.I E n.s.n.I.9.e +.} ",
"| f.:.w a.B.l.P.:.h >.:.>...-.0 !.!.!.!.!.!.!.S S S S S !.!.!.u !.!.} 5 >.A.e.:.7.r E v.+.@.>.E a 9.9.:.>.n.r m s.N.N.N.>.a >.} ",
"> r f - h k k } r > f I h w r !.!.!.!.!.!.!.!.S S S S S !.!.!.!.!.u S ; < f j < a e < j j e l a 5 E m e 0 e a f U j a / j 5 I R ",
"e | :.-.>.] 0 0 >.+.4.>.h.I ] !.!.!.u u !.!.!.u S S S S S J !.!.u S S / ) | | l :.3.l.;.} w ..9.9.n.-.f m 9.t.s.I.] e ..t.4.t.{ ",
"a :.:.N.N.n.] ] h.9.s.*.n.f C !.!.!.!.!.!.!.!.u S S S S S S S S S S S S P +.} a +.*.n.+.*.5 ;.I.9.9.G.I ) Y.>.} l.+.I s.3.;.n.x.",
"e *.:.n.G.N.+.) l.n.s.s.n.I C !.!.!.!.!.!.!.!.u S S S S u S S S S S S S S 3.*.j x.l.G.>.l.e | >.N.s.I.E E n.N.3.x.:.m t.9.9.s.9.",
"0 U ) I [ Q I r l j q m a C C S !.!.!.!.!.!.!.S S S S S S S S S S S S   m z l ; / ] U E R ; r z T h m r e j +./ / N , z N j j j ",
"U R E , f Q | } o.[ y [ m C C S S !.!.!.!.&.S S S S S S S S S S J ~.o ] j h E l E E 5 z ] E / } z w T ..-./ +.p j ] / { I 2 j { ",
"j.<.b.U Q A.<.7.7.;.g [ [ C C S S S u u u S S S S S S S S L     ~.~.*...I / B.n.l.9.f / h.n.4.-.l.z 3.x.J.l.G./ / -.-.*.;.h } ;.",
"<.=.j.R m U.o.;.r.j.n Q ;.C C S S S S S S S S S S S S   ~.E E l.:...    / ) 4...*.9.I ) >.-.-.-.;.e t.3.t.l.x.{ T ..;.+.t.j +.t.",
"} E ] a I | | :.+.| e U Q C C S S S S S S S S S     } } ~.n n ~.  S S S S z R t.| ..j T >.] -...| e { *.*.4.9.a ; ..| I E h h } ",
"0 h T a j R l 5 e a r I R C C C S S S S S S   O e g : 3     + S S S S S Z a e e z ) z N T w T ) j r I w a h j < < e % e f k h I ",
"k +.>.+.| 9.*.e | ;.n.j.j.C C C S S S S S ) o.~.=.=.    S S S S S S S -...l.-.R 4.l.;.*.+.I ;.t.>.n.l.h *.:.>.9.>.E e :.| >.:.h.",
"l *.*.:.*.a.>.r } =.9.9.C C C C C S S S S =.r.~.  S S S S S S S S S S -.;.V.3.T l.3.*. .{ I 3.h.-.f.*.< *.a.h.a.I.} k s.>.9.4.s.",
"a R U ] | } ] 0 =.*.o.*.C C u C C S S S S   S S S S S S S S S S S S +.| -.:.} z } E ..| T j -.>.*.>.*.e | >.>.| +.z 5 l ] ] ] E ",
"I I j p / I I j r = < f C C C C C C S S S S S S S S S S S S S S S , j 0 l l j h p 7 p l f r I r f U ] p m U z m E I f r a p T T ",
"N.4.*.f a.:.>.n.s.l :.9.;.C C 9 C C C S S S S S S S S S S S S S Q.| S S S S S S S S S h.l.n.N.E m -.>.*.>.*.T -.n.B.N.B.I E s.>.",
">.*.:.e M.>.*.9.| , v.j.} r.C C 3 C C C C S S S S S S S S S S Q.Q.S S S S S S S S S S h.-.:.l.E I a.:.>.n.:.a *.N.:.4.R.l | l.] ",
"{ { R a +.:.>...m e =.;.v.r.A.o.q n } C C C C S S S S S E.Q.Q.Q.Q.S S S S S S +.-.S S :.a.N.>.| 0 T -.f.:.>.f p E { ] m r k } } ",
"; f l 0 p 0 = 5 y r Q n 3 e m U j y : 5 b ^.^.^.^.^.^.^.^.^.Q.Q.Q.r f < h z q e e V S S 2 2 w w 0 w < > a U 0 0 5 < f l h f l e ",
"/ s.n.>.>.*.j *.*.>.>.*.g =.;.7.J.A.Q } ^.^.^.^.^.^.^.^.^.^.S S S S S S F >.j ] *.V S S I I o.} U ) I e | a.:.h.-.l | f.C.9.M.| ",
") f.a.s.s.a.j s.;.>.+.} n v.e.<.=.v.I [ ^.^.^.^.^.^.^.^.^.^.S S S S S S S 9.f +.*.V V S S m <.*.| :.} f h.>.*.>.l.a / >.s.:.h.| ",
"T l.s.I.l.>.a s.j.r.N.+.m =.v.A.j.J.m o.^.^.^.^.^.^.^.^.^.^.Q.Q.Q.Q.S S S >.f } | V V S S l s.a.-.*.T e B.>.:.-.l.k +.M.n.a.h.| ",
"h ] p U E E 0 E I y [ U y g Q n j W : y ^.^.^.^.^.^.^.^.^.^.Q.Q.Q.Q.S S S } e l V S V S S f E I l I k r -.T ) } r $ q r < f r q ",
"*.*.5 m | *.} +.} 5 Q >.+.@.;.n 3 m t b n ^.^.^.^.^.^.^.^.^.Q.Q.Q.S S S S P I E E q G G S n f ; E | | } +.q h E | ) { I q *.| *.",
"9.N.m *.s.>.s.>.n.e Q J.9.N.J.[ R s.<.v.<.5.5.5.Q.Q.Q.Q.Q.Q.Q.Q.Q.S S S S S >.n.s.E -.s.G N.*.E >.>.:.a.f.T ..s.>.f.a.] r N.>.s.",
"M.B.f { s.a.>.N.4.e ] N.n.Y.9.*.E N.;.;.A.} 5.5.Q.Q.Q.Q.Q.Q.Q.Q.Q.S S S S S :.>.s.E o.| o.>.>.I *.D.s.<.D.R ] 1.<.s.9.:.e N.>.n.",
"] k ; f U T m h E 0 l j l ) I k m } U E | m 5.5.Q.Q.Q.Q.Q.Q.Q.Q.Q.S S S S S s.>.:.l ] ] :.<.[ y I ! Q Y E e U } n Q U I , / I E ",
"] U *.:.E f ] { -.} ..0 p l h r l f e j j a 5.5.Q.Q.Q.Q.Q.Q.Q.Q.Q.S S S S S r 0 y > f 4 f I f h y q h Y K e h 4 4 ] } -.] } I a ",
"N.9.N.C.n./ N.4.:.9.a.a | >.a.4.9.) E *.+.+.5.5.Q.Q.Q.Q.Q.Q.Q.Q.Q.S S S F S } ] { Q -.h Q :.*.M.M.n I %.| %.<.Y f g.9.9.N.9.:.I ",
"n.G.4.>.N.I G.s.N.G.n.I 9.>.>.*.s.E E >.:.>.5.5.Q.Q.Q.Q.Q.Q.Q.Q.Q.Q.:.>.:.m *.| *.o.o.y ] >.[ | s.y l *.[ :.>.Y r n.>.>.Y.9.;.m ",
"m ) U z E < ) ] U I U f ) ) | ] } l f ] } } 5.5.Q.Q.Q.Q.Q.Q.Q.Q.Q.Q.Q.*.o.n R | o.o.[ y I E ] o.Y r Y %.I ] R a ; ) E | s.} T 0 ",
"f = 0 0 l a a , ) I E m e e m f I j e j U I 5.5.Q.Q.Q.Q.Q.Q.Q.S Q.Q.Q.] Y f < Q h k f q 0 $ f ] Y I T r % l I m m I 0 h I j l U ",
"+.e N.n.:.s.| U 9.:.n.s.l U n.9.s.9.] +.s.9.5.5.Q.Q.Q.2.Q.Q.W.S S S >.<.s.-.0 { :.o.} s.<.f ] >.| 1.:.h q s.s.9.N.| h } ..) } G.",
"+.j s.=.*.r.;.l 9.=.n.9.m R r.+.>.:.E 9.n.*.5.5.Q.Q.Q.S S S S S S S *.g.o.| 0 *.M.-.M.>.P.S S S S S M.) ; *.9.*.l.{ a V.{ { V.t.",
"Q j +.>.*.*.[ s 9.<.;.=.m I j.>.>.*.U | :.9.5.5.Q.Q.S S S S S S S S o.*.+.| q | a.| o.} | S S S S S | Y 0 +.>.>.3.| j 9.t.l.l.;.",
"m a q U m m m l < r y a 3 , g a f a < < r ] 5.5.S . @ S S S S S S S h h I n & 4 e 0 0 f f S S S S E l f 0 r e f z j 5 e U { ^ ^ ",
"v.=.e +.*.;.s.G.j I +.+.} ] I ) | | +.j ] G.9.~ . * c c c c c c c c c c c c ] j { *.| o.| S S S S :.) | *.I I ..+.-.-.T ) ;.-.4.",
"j.=.3 =.r.r.<.j.) U r.+.+.;.j } :.:.n.f ] >.+.X . c c c c c c c c c c c c o.g.n S a.9.] E S S S S +.U | 9.I / t.>.>.J.} T ;.3.-.",
"r.;.e =.;.;.=.;.E g ;.o.;.j.l | =.:.n.f } +.} . . c c c c c c c c c c c c c S S S S S S C S S S S +.E ] *.l / >.3.+.;.) B i.l.i.",
"n l : a 5 q s n y , g m Q Q y g l E E f I E a E . c c c c c c c c c c c c C S S S S S S C S S S A ; , 5 s 2 p h e h e i e ^ j z ",
"} =.o.@.M E +.8.r.[ I [ } ) [ Q ) 9.| >.:.>.a ) . . c c c c c c c c c c c c >.n.:.} % ) *.S S S ) j ) | ;.| +.) r @.{ 3.;.+.6 a ",
";.;.<.q.[ Q j.=.<.*.h >.E } <.U E s...| *.9.e E :.. . . . . . 3.-.4.+.m I.9.>.h.] n.0 ..h.-.:.n.@.m ;.$.$.>.+.} E J.>.e.b.K.s M ",
"v.<.<.r.] Q v.r.>.*.Y :.| %.a.} R :.*.t.s.J.I ] *.. . . . . :.*.>.>.) E 4.*.>.-.4.s.f >.l.-...;.b.s +.b.7.x.H.) g b.p.U.x.b.a ' ",
"R j n Q y 4 f e e 5 4 r Y n r > 0 f l I 0 f 0 a a x x x x x ) E z a r ) ) / ) f h m w ] } ) f h E g m ) _ s m g g @._ } _ ) $ 5 ",
"m q j [ Q n R n < l ] E Q I q Y } ) } | 0 j E ] E x x x x x | | E < z -.| ....p m ;.+...| / 5 a ) =.| +.| 5 B @.Q o.R a ) [ a g ",
"v.Q } j.s.s.M.j.I -.-.*.*.a.I s.f.:.9.n.U ] a.>.<.x x x x v n.N.G.0 *.:.*.t.l.E f 9.9.+.t.+.m T.<.+.=.v.) q e.j.,.k.q.a =.;.r.r.",
"j.R } r.<.<.>.=.k *.| -.:.M.l *.s.g.N.M.Y I >.M.>.x x x x g.s.f.s.e ;.+.*.>.n.] E N.l.t.N.I 0 A.v.j.k.v.) 5 o.=.;.<.<.q o.o.<.=.",
") a ) =.+.:.+.| # U { / l a ; T Q | ] Q f 4 n ] K | C C 0 y 0 f a , j m a r U 0 0 l j m E e 5 R [ X.X.[ Q 4 g g I R Q q Q Q _ X.",
"o.j ) Q f j g g m ] l e I k e f e e & 0 I y 8 % < n S S U j r ) } -.] +.j e | z U U f e a N | R U & y [ [ _ @.3 g R [ g q : 3 Q ",
"<.8.A.) m =.7.o.-.9...h 4...-.*.<.j ] M.*.+.| Y n N.S S H s.e -.r.9.r.v.U | H.b.x.H.@.l b.v.;.x.) g F.v.<.<.T.W v.<.Z.q.<.m R =.",
"8.;.J.M a >.r.e.:.9.| a -.*.-.| } y R >.+.+.+.U h D S S <.>.j n.n.x.9.e.M [ b.x.e.J.[ l >.;.>.r.o.b <.s.Z.<.s.t o.=.<.<.;.g Q o.",
"x.;.x.l q @.} ;.s.9.} p | -.4.-.-.l T *.;.*.| l m S C C *.| e R | +.[ +.l E :.;.@.e._ E ;.+.7.:.[ g [ =.v.=.=.s =.Z.<.r.+.y [ } ",
"g 6 5 , 3 U l U z f f 2 l m N l U e r m m 5 0 , r C S S S S S j y f e l y j m m 6 r g l U m g a n e n j n = q , q a e e 3 : l M ",
"$.) q O.e.x.x.p.z a { ..-.} T z -.} +.t.*.w T -...S S S S S S S 7.e.[ >.7.x.7.>.R m x.y.8.b.U _ r.;.v.e.;.a [ ;.X.) | R b +.;.y.",
"x.@., $.b.>.7.>.{ N t.B.4.-.) ^ 3.+.{ +.3.e T #. .;.S S S S 3.S y.y.R [ 7.x.>.7.[ m J.y.;.J.s _ =.+.8.y.8.j >.x.x.@.j.[ b 7.@.@.",
"7.$.6 $.x.x.x.H.+.R l.t...3.} R l.p... .V.N ..-.3.i.4.^ ^ 4.l.l.e.x.U _ 6.e.$.e.X.W b.e.;.b.s X.Z.e.b.A.7.s >.>.,.;.7.[ j r.e.;.",
"' ' 6 ( ) } E +.N h 3.;.) 3./ w d  .{ N ` 1 ^ ../ ` ^ w h { ^ j l U : 5 s a 3 t r e M U M E = g [ ) O.O.B = ' [ | +.) l = U +.U "
};
