/* XPM */
static char *e6a5c6deabc64bf9b33fe5a800d8edaeE80FjGvb1J3ZOwek[] = {
/* columns rows colors chars-per-pixel */
"64 64 167 2 ",
"   c #454135",
".  c #4B4639",
"X  c #4D4A3C",
"o  c #524E3E",
"O  c #4F4D40",
"+  c #534D42",
"@  c #4F5042",
"#  c #555245",
"$  c #5A5345",
"%  c #565749",
"&  c #5B554A",
"*  c #5D5A4D",
"=  c #5C5753",
"-  c #5F5C51",
";  c #60574E",
":  c #615B4E",
">  c #635D52",
",  c #655E58",
"<  c #63604F",
"1  c #656255",
"2  c #6A6456",
"3  c #666459",
"4  c #6B665A",
"5  c #6D6A5C",
"6  c #70675E",
"7  c #716B5E",
"8  c #6C6761",
"9  c #6F6C61",
"0  c #726E62",
"q  c #786F66",
"w  c #746F6B",
"e  c #757265",
"r  c #797365",
"t  c #777469",
"y  c #7B756A",
"u  c #77786A",
"i  c #7D7A6D",
"p  c #7E7C71",
"a  c #80776D",
"s  c #817B6E",
"d  c #837D72",
"f  c #887F75",
"g  c #817C78",
"h  c #887F78",
"j  c #83806F",
"k  c #858274",
"l  c #8A8476",
"z  c #8B8876",
"x  c #868379",
"c  c #8B857A",
"v  c #8D8A7D",
"b  c #90877E",
"n  c #918B7D",
"m  c #94917F",
"M  c #8B8681",
"N  c #8E8C81",
"B  c #908780",
"V  c #938D82",
"C  c #988F85",
"Z  c #938E8A",
"A  c #988F88",
"S  c #8F9082",
"D  c #959284",
"F  c #999386",
"G  c #969389",
"H  c #9B958A",
"J  c #9D9A8D",
"K  c #9B9691",
"L  c #9E9B91",
"P  c #A0978D",
"I  c #A19B8E",
"U  c #A09790",
"Y  c #A39D92",
"T  c #A89F95",
"R  c #A89F98",
"E  c #A3A08F",
"W  c #A5A295",
"Q  c #A9A396",
"!  c #A6A499",
"~  c #ABA59A",
"^  c #A7A89A",
"/  c #ADAA9D",
"(  c #B0A79E",
")  c #B0AD9E",
"_  c #B1AE9F",
"`  c #B1AB9D",
"'  c #B3B09F",
"]  c #ABA6A1",
"[  c #AEABA1",
"{  c #B0A7A0",
"}  c #B2A9A0",
"|  c #B1AAA0",
" . c #B3ABA0",
".. c #B4ABA2",
"X. c #B2ACA0",
"o. c #B0AEA1",
"O. c #B2AFA0",
"+. c #B2AEA2",
"@. c #B4ACA1",
"#. c #B4ADA3",
"$. c #B5ADA3",
"%. c #B5AFA3",
"&. c #B6ADA4",
"*. c #B7AEA5",
"=. c #B6AFA5",
"-. c #B3ADA2",
";. c #B8AEA4",
":. c #B8AFA6",
">. c #B8AFA6",
",. c #B3AEA8",
"<. c #B8AFA8",
"1. c #AFB0A2",
"2. c #B3B0A1",
"3. c #B4B1A2",
"4. c #B6B0A4",
"5. c #B7B1A5",
"6. c #B6B3A4",
"7. c #B7B4A5",
"8. c #B6B4A7",
"9. c #B4B2A4",
"0. c #B9B1A7",
"q. c #B8B2A6",
"w. c #BAB2A7",
"e. c #B8B5A6",
"r. c #B9B3A6",
"t. c #B6B3A9",
"y. c #BAB1A8",
"u. c #BAB3A9",
"i. c #BCB3AA",
"p. c #B9B5A9",
"a. c #BAB4A8",
"s. c #BBB4AA",
"d. c #BAB6AA",
"f. c #BCB6AA",
"g. c #BEB6AB",
"h. c #BFB7AC",
"j. c #BFB6AD",
"k. c #BBB5AA",
"l. c #B7B8AA",
"z. c #BAB8AB",
"x. c #BCB9AA",
"c. c #BDBAAB",
"v. c #BDB9AD",
"b. c #BFB9AD",
"n. c #BDBBAE",
"m. c #BEBAAE",
"M. c #BCB9AC",
"N. c #BCB7B3",
"B. c #BFBDB0",
"V. c #BEBCB0",
"C. c #C1B9AF",
"Z. c #C1BBAF",
"A. c #C0BDAE",
"S. c #C1BEAF",
"D. c #C1BBAE",
"F. c #C7BEB5",
"G. c #C2BCB2",
"H. c #C3C0B1",
"J. c #C4C1B2",
"K. c #C4C1B4",
"L. c #C8C2B6",
"P. c #CBC5B7",
"I. c #C7C0B8",
"U. c #CAC5BA",
"Y. c #CDCABB",
"T. c #CEC8BC",
"R. c #CECABE",
/* pixels */
"r H I F I y ; Y n y s 0 2 d n n l ; C P P C l 5 ~ Q W ^ ` s 5 / i. .i.;.P 5 ( T U Y @.r d *.P ^ Y k 2 ^ H H H H o 1 I I W k k % ",
"T Q I Y $.V y h.f.0.h.Q v  .0./ T a F Y T T Q n Y $.d.+.4.H d / *.T /  .Q r / P F P i.l c ;.Y Q 0.J k J.) ! W ) 7 V A./ e./ 8.t ",
"Y I ~ 4.b.D c T.$.f.C.Y y ` 4.Y ;.n c P ` ( ` c 0.` $.C.b.J l d.*.;.F.C.@.y ~ ( @.Q h.C b i.*.b.L.H 5 ^ ) 8.^ 8.> V A.^ 8.8.x.1 ",
"d s n n H s s ` ` ~ ~ F 5 Y Q V F f 7 n ~ Y H 7 H l d c y 5 1 V c V I V V > f V F i b q 5 V V V V u X r z H s z & i Y V J n W : ",
"V i 5 + i k k V k 4 e e + 0 5 + , 0 ; r c s s 7 c H D y & d d i l d y 5 F d V V V 2 d l i V l 0 > v k D z D 1 7 k k v z k 1 D s ",
"b.B.+.i / b.b.z./ k W 8.^ +.^ d c Q F F V b V ~ ~ 0.d./ d / / W ~ / J i 0.$.d.i.G.f H *.T $. .V 0 4.8.+./ x.s z Y.x.x.H.4.e ) 2.",
"D 8.4.e ^ [ / 9.! t ^ l.z.9.9.i c Q H V b n i Y / Y ^ b.k J J ^ T 0.Q 0 ^ /  .*.G.y V  .H Q $.D y 4.^ Y +.U.k v d.4.d.K.+.4 Y H ",
"J 8.^ 3 2.n.l.H.^ t / ^ / L ! 1 d C V V T $.y V +./ 4.b.y Y W ^ W *.H > / C.*.^  .5 v f.Y T / v 0 +.+.^ / d.5 d 4.b.b.b./ 0 / H ",
"% 5 e @ t u u H 5 % e k t 3 5 i y c n 4 i 0 2 y i V t l 4 y y k t V e # * e y * 0 4 * y y 4 i 0 > v d 4 1 4 0 e l y 0 N y > k c ",
"4 J ^ ! / D 1 1 / L [ / 9.k D B.^ 0.+.i n H J ^ / v * D J 4.J x 4 H J N V J J i ^ ] t.~ H 3 L +.+.d.! e d +.+.4.K.D 4 L +.+.+.H ",
"9 ^ ^ z.b.z.D D 9.2.4.W d.e d b.W 0.b.l D ^ W H ^ v i b.1.9.9.z.i ! / W L Y H 0 Y W d.Y W > ~ K.+.+.G.k V U.] H t.Y k 4.] ~ d.s.",
"4 W ^ d.G.b.Y V l.d.4.4.d.k l / $./ ~ i k W +.^ / l y 8.9.8.l.9.V ! ! ! ^ ] W y s.t.G./ t.4 J / b.4.K.v v d.b.] s.~ d +.+.+.4.+.",
"1 l V k F V k 5 i i 2 d 0 4 4 2 i 2 e 2 0 d v i v e > v v N N k e d k x d d i # N D l v l # 5 p x t d 5 4 y Y N N g * p g y y y ",
"l l v & e n J H I F 7 F d H I l k > v J Y D v 5 t v v S i 5 p D G J J D y t v i v v > p D v N H p 3 x L ! N Y 9 y D N G k - y G ",
"0.` h.l n C.`  . .~ r F F I Q J f.k Y ~ ^ W W x J 9./ / / S G 1.^ W W L k N z.d.l.+.e N 9.d.[ ^ t.p ] s.G.t.G.N N ! ! W ~ t H ~ ",
"` Q 0.c d L.I ~ $.0.s n ~ v V I 4.i Y / ~ / [ l D +.^ / 9.v v 1.^ L Y W N V [ L W +.k V / ^ ^ ^ ~ 4 +./ +.4.s.D x L ~ Y +.y Y +.",
"H v D 0 k J J ^ Y J 2 l n V F l F s s n n n n 1 r P H H J s s H W G ^ G t p c [ J L y x / D ^ L J 4 G W Y [ +.0 # L J k v t t H ",
"1 t x 0 y v i > 4 0 5 k c f 7 s l d l F 4 r y 4 4 r $ ; s r 0 s 1 - g y 3 0 4 4 p N p g x 3 x V y 5 k 3 0 t y * * 4 X 4 e u e k ",
"u Y / Y J +.W 4 J ~ d.0.0.T y $.` ` ` D.r V I I Q ( d f ( ~ Q 0.D x [ ! L t.! c [ t.~ W Y k ~ 9./ d.l.t W ^ / +./ v 4 ^ J / ^ 9.",
"i W W ^ W 2./ 5 H Q  . .h.Y s f.f.( ` $.d Q ` ` T ~ d l ( ~ Q $.Y x [ ! ~ N.] x t.] W K G g ] 9.^ 8.W * W 2.9.2.K.H u 4./ +.[ 4.",
"0 v l D J H D 1 Q W I W  .d ; 0 c s C n s F F n F n 7 y Y Q Y I V e Y J ^ ^ H i H N L J x y ^ / W / W 4 J / / J Y p > i D D D v ",
"k k y 9 N k k y 5 + * e l r r 0 o > n s s s 4 4 r 0 > 4 4 6 a a e & y 1 i i u t 9 + 9 i e 5 k 5 e l D 9 d l p d v k e 5 0 0 x x ",
"n.[ W e 2.^ ` d.4.i ^ +.~ 0.F.$.4 H C.0.$.r.d H Q Q ` ` l s Q Q ~ J ^ t J W ^ 4.4.p J 9.l.l.b.v d ^ / W / W x ^ d.z.b.z.k v 4./ ",
"/ W ^ 4 z./ W +.J & f.0.H $.$.I ; H ( ~ Q r.7 F Q H ~ a.n l ~ F H L / 5 J W J L 9.p W 9.^ ^ l.v k 2.^ / d.^ e W b.^ [ R.i J l.D ",
"G G v 0 Y ^ / L d 4 Q ~ f.$.C.I 2 s H P I Y 0 C Y Y ( r.l y ~ Y Y ! J 4 v W ^ Y ^ e v ^ 2.n./ J 1 k ! 8.^ / e 9 v G D d 5 y H H ",
"# e i 1 9 1 + > 7 5 n s ; 4 d l r 7 $ : a l $ ; 4 7 a l r 7 n r 0 5 e * t p 1 4 4 O 1 e - - 3 3 1 3 * % 0 l 1 1 > * e i t 0 i 3 ",
"N 4.d./ / W y W W / / W r Q ~  .S.C.n H ;.C.~ ` 7 s P Q r.T P 5 H v F J ^ / y D W G H J k k I H l V k 4 J 2.^ 9.^ i J 8.B.+.z.J ",
"V 8.2.4.4.2.y 4.~ / Y H s f.*.` Q f.l F Q Q ~ r.s n Q I f.` I 7 ) W ! 2.! +.e Y W W J J s d ) W J ^ H e 9./ W / l.0 V / 4.^ 9.J ",
"x l.4.K.l./ 0 4.0.$.b.Y d Q f.C.0.F.d I a.0.a.$.7 l ( Q a.r.F 1 ' 2./ z.W / e H J / ) ^ i i 4.4.! W x 4 z./ ^ ! l.u Y z.d.2.9.J ",
"t D 9 l v v 1 v k 7 F l 7 r n s y b $ 7 l l l l & 7 V n d n 7 . r v k E D F 4 i D v V n e e v k i k u 5 ! x V H 5 . 1 5 * e 5 1 ",
"W W > d J W H Y H > n / Y T ~ s ; d 6 a s r r n C n n a $ l c l t i 1 G I H k v v 1 5 t t s e # v J J H Y 1 t v J V G k 1 W J W ",
"+.n.d W 4./ 4./ d.4 n G.+.b.F.F l r.` f.` J n Q I J Q ~ r ` ` / e./ t ! n./ / d.4.v ! 4.2.b.W v / / ^ 2.8.x L 4./ 8.2.D 5 b./ 4.",
"z.z.0 G 4.2./ b.[ 4 D b.d.U.+.W v b.~ ^ C.H l / ^ D I J d +.^ W / W k W / 4.^ / 4.v I J I / / k W A.4.) A.z D ) ) 4.+.^ 4 b./ d.",
"D y # e l x d t v 1 i y i V k y d H l v J d i V l Y V 4 + i k V G v 7 D ^ / 4./ ^ i D D ^ ) H 7 k m n z v 5 l F s n l k & v k v ",
"D l W ^ v e D G ! H L 1 0 i t 5 i e 4 y y 0 y 0 . k d d i * X 5 i s 0 i 5 X 5 1 7 % e < e k e r 7 2 r z j 5 r : : D H ! D H k 0 ",
"b.+.n.B.d.N b.[ ^ +.2.0 J / 2.[ +.V v W Y Y +.V i d.W d.T.v y / ^ e.d.b.W 4 H D G n ! y n ^ W x.x.s k W J E ) z e e.+.2.b.+.^ k ",
"d.G.[ / b.k G.4.b.G.d.k +./ / W 4.v v / ^ / d.v v T.d.^ b.V V d.I ^ W / ^ s W J W I I 7 D / H J 4.7 i W H ^ / z 5 d./ / U.+.~ d ",
"d V l p v * V D l k l e V V J D H i e D H H L p 5 l H H H 0 y D W / ^ W I s v J I I H 7 k v D I z 5 z E k m v 0 # V v J 4.H x 1 ",
"e + 1 1 i 0 0 & V k v d 4 4 d e k y 4 y l k l d e . 0 k i > 0 i 5 v H D z e * n r u e 1 1 . e D z k x 5 X i k d d k 1 t k y i l ",
"Y 4 b.d.^ 4.J l +.^ d.4.i l d.+.4.+.D Y 4.+.4.b.4.y / d.+.d.+.e s J / ) 4.! 1 G ^ I H 4.) e D / J ' ^ r 2 4.4.+.b.J t H L V H G.",
"Y y 4.Q W $.~ i +.Q d.+.d c $.Y / ^ v +.d.W 4.^ 4.i +.+.W 4.b.l v H W e.I J 1 W z.! z./ J.z v / +.H z.V # W +.W t.G 0 N.G G N.-.",
"n y Y / W W F e +.` ~ Q d k 0./ / W l J ^ +.4.+.W l 4.b.4./ / k H W I W Y J 2 J 2.J I H J k v ^ H v J z 1 Y / / ] J y +.+.t.t.~ ",
"d 0 2 l d d d i * 4 7 0 ; & r 0 e 0 * * 5 D l v l y e d D l l y 0 7 r t k s o : 4 1 1 e e k s y l v i e 1 5 4 e p y > 4 x G M M ",
"f.Q 4 Y W ~ 4.G.y k Y Y H D k V J J Y y D G.+.4.d.4.v H 4.^ +.d.H k I J ^ ^ D r G W J I J 8.^ e D ^ V J W k k L Y ! ! x V ~ ! [ ",
"0.Q ; Q $.$.` 0.V l $.Y Y ~ y H ^ ^ d.e D / Y / / d.D W b.^ ^ d.^ s ^ ! I ^ e.s D ) ) D v W / 4 l Y l J +.k N +./ / G.H x ~ ~ ! ",
"$.Q 4 Q ~ ~ Q Q v r ~ I ~ 0.i J Q ^ d.e H Y H ] / ^ l J d.b.+.+.I s ^ 2.^ / e.i e I ! D v n ! r J Y v D ! i N / ] Y ~ V h ,.t.,.",
"s i $ 0 > 2 q s 7 & r d n n 7 r i v v e k v 0 N V e > 5 0 D v l 0 5 t k D v k 2 1 i : t e 4 5 * > # & > e - 9 t 4 t 4 8 4 M t p ",
"H Q I T f v Y @.$.F k F H V F n V +.J / ^ / 0 V W L +.W 0 v H / ! / l x 4.4./ z.^ H X n W ^ Y ^ V y V J ~ H Y V 5 Y G ] ~ Y , 0 ",
"~ ~ ` ;.F n r.Q ` W t / v H ) l v 4.L J W +.4 v ^ Y 4.K.e G Y ] ! / Y d K.+./ 2.D d.1 L 9.^ ^ d.T s ~ Q R / Y H v F./ *.h.I.q f ",
"a.` ( $.D n a.` / W z ^ J W 2.H v ^ W +.4.G.k D W ] 4.L 4 H ^ W / / V v [ W / ^ [ 4.e / l.^ L ~ h.q Y h. .s.F.V r h.<.I.j.h.q A ",
"c y s n 7 : e 4 4 > : 5 z s 5 % 1 e i k 1 e 1 0 0 s k : & l V v p 0 5 V V N V e e d 3 D H V e t v r d V V q d r r T C H C V . > ",
"d 4 y H v s c s * i D v n k 2 z H V H J 1 y v D v D D e D W J J v % p ^ J Y L 9 d ~ Y L J V > 0 V Q H Y H > h Q n I c 0 V F 0 r ",
"f.n H 0.4.r.x.0.k ! ! W W 2.k 4.8.^ +.d.l D 2./ ) 2.! s e.J.d.b.G.1 W ^ W +.t.v e +.+.Y +.Y d T.` Y Q a.V 2 *.0.( r.;.7 Q ~ $.$.",
"0.c H $.` ` ( Q u W J ! ^ x.i W 4.e.n.z.z k / z./ A.~ 5 J e.4.8.4.4 ~ Y W / d.D v b.t.+.b.k 1 b.f.0.r.f.V > I Q ~ ( ` 2 I I ` Q ",
"V 0 V Q Y ^ Y J   l G N i 0 # x n J D n e : s D j J n $ 1 7 1 e 0 & y d 0 5 l 1 1 i y g N 4 > c F P P H n : r r l l n 2 n n F P ",
"I y V n e y r r d D i 4 k u 4 e 4 5 o 1 k 7 < X * s n k l i 5 V H ! D Y y 4 J p l c e 4 0 g H c l o 7 H F F Q ; r l F y 2 $ ; n ",
"` @.G.V d Q  .Y ! +.L t [ L ^ W ) y n d.W Y J z s n.W / G.4.4 ! $.+.$.f.l H F.h.i.F.T i h.h.Q i.V r D.a.( ` P.n a.( D.r.` d l ~ ",
"@.~ G.f 0 / +.*.~ +.J 0 ^ W ^ J H 7 z / Y Y Y l r 4.W ^ ) / y d.d.i.+.*.f F h.i.*.G.F i / Q / $.I a ` r.C.` r.7 I ~ ( ` ~ r n I ",
"i.Q i.i 2 T H Q 4.+.H 9 J ! [ ! W i x W ^ W J i d +.+.+.W J 4 c J Y F Y i v ^ ~ T *.C v ~ Y  .^ F r F Q f.Q Q q Q f.( $.Y 7 F H ",
"r , > & ; l i l p e e - i d g i l 4 5 d d > 1 & 5 e 4 > > y 3 y 7 e 4 i 7 y d d , 5 r i l d r 0 s 4 s y s + 2 & 2 7 4 4 ; $ i d ",
"R V 2 U *.i.i.<.p 0 G L ^ H x p ^ H Y +.W 3 x W L J G l N d.s.G. .*.F /  .i. ./ c d i.;.@.h.l C $.~ f.$.~ 0 F ~ P V H c a I ~ 0.",
"i.T & R h./  ./ G g +.z.[ ^ V M ] Y G Y ] 4 x ! K ~ ,.L G +.] Q ;.;.c F  .i./  .F d G.;.~ G.q C Q Y $.0.@.y / i.i.T 0.F s  .T T ",
" .R , Q s.i.s.F.Y c t.+.L ] H c t.<.L K N.g L ! ] +.[ c M [ t.<.*.i.l C ( *.T *.P b h.*.~ h.q P C.*.h.C. .q / / ( Q  .F y &.<.~ ",
"A A , B V H v Y g t ] ~ V ] N 3 w K G g Z = M L N Z M 3 t G M t i l & > q 0 ; 6 5 4 f l f v + r F V P P h + A F H Y V i # l Y x "
};
