/* XPM */
static char *_1c48d8bff2649beef096d54a8bab9b9hDJEsqdw6hC1qgcO[] = {
/* columns rows colors chars-per-pixel */
"64 64 55 1 ",
"  c #181C23",
". c #111317",
"X c #101216",
"o c None",
"O c #101317",
"+ c #181C21",
"@ c #121418",
"# c #13161B",
"$ c #131519",
"% c #101216",
"& c #25292E",
"* c #101317",
"= c #0F1216",
"- c #111418",
"; c #0F1215",
": c #161A20",
"> c #494C51",
", c #44484C",
"< c #717171",
"1 c #414549",
"2 c #474A4F",
"3 c #6E6E6F",
"4 c #383C41",
"5 c #35393E",
"6 c #32363B",
"7 c #25282D",
"8 c #3E4146",
"9 c #2C2F34",
"0 c #747474",
"q c #2F3338",
"w c #646567",
"e c #292C31",
"r c #676869",
"t c #4B4E53",
"y c #5B5D60",
"u c #222529",
"i c #1E2125",
"p c #3B3F43",
"a c #55575A",
"s c #16191D",
"d c #4F5256",
"f c #121417",
"g c #525458",
"h c #6A6B6C",
"j c #0C0D0F",
"k c #1A1D22",
"l c #616264",
"z c #585A5D",
"x c #777777",
"c c #4D5054",
"v c #5E6062",
"b c #050506",
"n c gray49",
"m c gray48",
"M c #838383",
/* pixels */
"OO%@$soos.=@.jjjjjffffj+% :bbjfjbbbbjfj;% %;bjjfffffffffj=      ",
"O*+228p111&oiiu77eqqqqqe@#@s76qkiuks967s=%@fi79qq66666qq7.@     ",
"%+t<m3zt2,6ku9q654p811,28&X92d,7p,8e414eoXXiq58,>t>>2,,89k.=@@O ",
"+8hmx0ra216i9648,2tgzylry57drhz9gwz8>t,47jfq8,2cgdcdaat89kk&&&=O",
"X230<<3z216i68,2tavlwrhhw,qy<<w6>yaayg>1qki82czwrrwwwwa1971lz4&#",
"s1h3rwyg289782>czlvv3x0<w19cyll>2aazgct,6i72awh3<<<<<3lt9i13w2&-",
"f6alzgct19i6,>tayzazw3<<3271vwhwvyg>,2t,qk7dw<3h<<<<0x3>ufqvy1o=",
"jup>cc>89ki4,>>ccczwr<xx<2kqv3<rwyzyvyc8ekea3<3h<3<xnmaquiu81es.",
"jsep2,47sfi42tgaazyhxnMmr4si8w3wwrh33y17kkeax<h<xmnn3>97qquiukkj",
"jfk64597uik92cl033vr0mm0cuffk8wh<x<wg47sfku10m0nnxrg5k748867i7ej",
"jfke4,tc>8eu4>ynm0wwr0xwqfssfk8v0xhd6uuisfsech3hv>9kke8>>>21469j",
"bfie1y30m<z4e4cxMn3w3n<1iuqq9iipzvc6u7q69kfkie5q777kipdddcc>159j",
"bf7q61lnMMxl4k6anMMnm31u76818qee9969q66667ssku9655676gllvyg,p4qj",
"ju4td11y<3wy>us7t<n0aqu9641>86,dc>,4655567k75p111pq9z<<<<wc88,4j",
"j9d3<wt,gadc25skk799eq41882,41wrlt845545eu61222>2pe2300<ra22t>8f",
"jprhwyt81t>>>8kkksiq412>2,>15wx<l>,1p18q7q2>22,2,59l00<ha>gvy24j",
"j4gcd>p4,>>>>8u7quu612>>>>t1p3n<z>>,,289e42222221qph00rg2dyly24j",
"bi965961>>>>287u67742>cgzzyzd<x3gt>tdg,9e4>2,188pq,3<3laccd>c,6j",
"bfu7951>>>>>,5iu67up>dyr333hv3<rdtcgvra6e4211,talgph03vayrwzy2uX",
"jfq81,>>>>>,pek769i4>glhh<<3w<0rggzl3<v898agvh0xm3,1lrlwh33lgqX-",
".si51,2221849iiq66u52awhh3<3r3n3wrh3<<r>52rh<0xxx<l>81gvr30r,X@O",
"*;kke6545q977948p5952zr<<<0x3lM03<<<<<3z4,<<<<<<<<<wd1p66,tpi.-O",
" %+Xkkkkiueq41>215662y300mMma5wnnnnmmx<g9p3h3<3r3<<3hl>7siikfo+-",
"  %:$kske6p,>>>>15561lxnm0l29i5zlwrlyd89kqr33<3wh<<<<0guskkiikk$",
"    -$iq,tttttt2p5p4ptazg8q77eu9q666557sseyx<<<3h<0xxr4iu9qe7e7j",
"   O-$e1dgaaaag,48,,84q7ii94p5qq99qpclzpui10nmmx0mMnw87e6569eq9j",
"   %+u5dyvwwwlz212dc>15ui68,,8111>y3mmmh8u9c3mnnnm<aqu95445qq69j",
" O%@&q1yh300<ha>cavgtdp7q12>2,>>dl0x<rhxr8e95cyvy26kse4p114544qj",
" -+q841wnMnm0rddyhhzyr86,>>>>>>ty003rgy<xa9569eeeeq7751,215p1,5j",
"*$742,4znMn0<lal300<nn15t>>22,,twh33ryl3xy68,,18p56iq82>28p,>24j",
"Xkq,>g12r0003lw<<0mnM<p5>2,84441czr<rwwl3y61tcct216up22>211>214j",
"jup2dyv2>h003h<<<0xMn2uq8p4558,dzr<3a,>z3y61glwvd>q98,2>,1,>216j",
"j91>gl3z1yx00<<30nM0pkfu964441dr3<<r>4,v0aq,z3<3z2998,2>22cdt1qj",
"f6,,,zh3g2<m<<<xMnyqisfiq6p1,2dwrwlz>1,yr>q2y<<ra,e91,2>tzlygp9j",
"f5,12yh<rct0nMMnwpiu45ii6,22>>tayvvyd,,ag44dr<ry2499p22>zhhya16+",
"jq,,2ar33wc,az>699uqazqs92>>>>cw<000vctg8q1zhlac,pqu52>cl<3wv2&%",
"je11,ar<<3wad25k9q79aa9k78>>>>cr0<0mhzy2q5grlaggd,5ki51drxxhte$ ",
"ji4,2z3<333hrv8u55qu999665,>>>cw<lr0<y1e7,w<hwvyy27ski7958859uX;",
"fs91>z30<3hhxr15gc1qe9p2pe94112ywctg25ukk5wxxx3lc9kkkuq56q9e99kb",
"@.i5,g3m03rhnv4>hrladct>4ik7966pp6659ikik7,vxxv>peske822,18456ub",
" +kep>lmx330mdqzr<<<hlg25kk764445548p9uk78>,ga,885u7>yzd>,,1p6eb",
" :.k98g<m3xmwp5wr3003yd>4791>>t>>t>tct5i5whg11,>,572r3ryd2,,15eb",
" O+kk62w0xmh15a0xxx0wact44avgc>>>>tdyrg6>0<rz>,2157l0<3wzc>,14eb",
"  =os74dr<v47>xmmx<rygc>p1h<rygt>>car3a>wxx<l>88869r003ladt218eb",
"  :&9e95,17fkzmm3wvyadt>41h<<<rgttdarr2c0nMn3z,45q6h0<3wact2,1eb",
"O#@&p15eeeiffqr3wvyadt>,52<3<3hattdgrw,axmnn0ha,46ew<33rydc2287b",
"@$94,>>>>2p9sf1lyzdt2,899ax3wlvd>>tdwz,y33xx0<wc857g3<<hydt>24ij",
"Xi6,>tdaag28qksq818467ks7gx3rwvd>>tgrc1yhh<0x<rg2pepr00hygc>,6o;",
"f782dvh0xhy>4qkjsksjjjjfk20wllvd>tgl0>par3<<<<hg>167z003vgc28eX*",
"fq,tv3<x03wg159skssue7kffp0hhhrd>tgv<2q1gaylwvat2p575rx3lgt,5i.O",
"f42tvwwlvzag>p6uffe5469q94hx<<hd>taw3>791>ttt>21p557k1h<lg289o= ",
"j42>ddt2,1,>>15efi5ppqq,c8aM0rzt>tcd>effu7954445556ikipyyd16i.# ",
"j52>,8445541>,4qs78,24qpa,5llg>,859u98caa4sfi79q667sku7q4p5u.:  ",
"je,>1455548,>24qk7,gva84cg5ee7uiks92arm0wc9sfssskks7p18qe7uko=*#",
"+o8>,111,>dgt,4qke2v00g1dy>7fsssskgrrr3wad1efksfffuarwd4q6q7iX;#",
"@Xq,>>>gw3hlc15qk7>l00ztywgqsiuui9zzgggdc>1qkkkuus10xl14,gc89s.%",
"*+o42>tz<n0l>869siclwhvy3r27sikksi51>>,,,,16if7,4igx0ap,zvlg5uX*",
"#:.982>gh0wg146ufscrwh<0<zqsfiuku7792t,84ppqis,z17zx0y,cyyll,eX-",
" #;o61,cyld,p6esskp30xx<y4is9,dp816k5>,pq9q9k7g247cxxl>tzyvw>eX-",
"  *+76p1>>14q7sfkkuz0xrc6ii8hMnz84qui428q99uk6>8575<0latdvww1u.*",
"   -$i96p859isskkske8167ks4<<<3y855esepp569ifq14qkky3wyccyrw87;O",
"   #;oku7euso$&u4s.$$..Xsi1wac>2,189ff799euo.&6eufjpzydczyag5&: ",
"    #=offjjo+*-Xqo*OO%#-+kep4ppp46eijXXX...=O*fff$ofieeq,,q7o;  ",
"     #=jbbb.: #.b.#     @jjjjjjjjjbbb@O%%##O %Xb$%$bbbbbbbbb.*  "
};
